<?xml version="1.0" standalone="no"?>
<!DOCTYPE svg PUBLIC "-//W3C//DTD SVG 1.1//EN" "http://www.w3.org/Graphics/SVG/1.1/DTD/svg11.dtd" >
<svg xmlns="http://www.w3.org/2000/svg">
<metadata>
Created by FontForge 20120731 at Thu May 25 14:23:20 2017
 By admin
</metadata>
<defs>
<font id="iconfont" horiz-adv-x="1024" >
  <font-face 
    font-family="iconfont"
    font-weight="500"
    font-stretch="normal"
    units-per-em="1024"
    panose-1="2 0 6 3 0 0 0 0 0 0"
    ascent="896"
    descent="-128"
    x-height="792"
    bbox="-3 -212 1563 896.121"
    underline-thickness="0"
    underline-position="0"
    unicode-range="U+0078-E8A6"
  />
<missing-glyph 
 />
    <glyph glyph-name=".notdef" 
 />
    <glyph glyph-name=".notdef" 
 />
    <glyph glyph-name=".null" horiz-adv-x="0" 
 />
    <glyph glyph-name="nonmarkingreturn" horiz-adv-x="341" 
 />
    <glyph glyph-name="x" unicode="x" horiz-adv-x="1001" 
d="M281 543q-27 -1 -53 -1h-83q-18 0 -36.5 -6t-32.5 -18.5t-23 -32t-9 -45.5v-76h912v41q0 16 -0.5 30t-0.5 18q0 13 -5 29t-17 29.5t-31.5 22.5t-49.5 9h-133v-97h-438v97zM955 310v-52q0 -23 0.5 -52t0.5 -58t-10.5 -47.5t-26 -30t-33 -16t-31.5 -4.5q-14 -1 -29.5 -0.5
t-29.5 0.5h-32l-45 128h-439l-44 -128h-29h-34q-20 0 -45 1q-25 0 -41 9.5t-25.5 23t-13.5 29.5t-4 30v167h911zM163 247q-12 0 -21 -8.5t-9 -21.5t9 -21.5t21 -8.5q13 0 22 8.5t9 21.5t-9 21.5t-22 8.5zM316 123q-8 -26 -14 -48q-5 -19 -10.5 -37t-7.5 -25t-3 -15t1 -14.5
t9.5 -10.5t21.5 -4h37h67h81h80h64h36q23 0 34 12t2 38q-5 13 -9.5 30.5t-9.5 34.5q-5 19 -11 39h-368zM336 498v228q0 11 2.5 23t10 21.5t20.5 15.5t34 6h188q31 0 51.5 -14.5t20.5 -52.5v-227h-327z" />
    <glyph glyph-name="icon2" unicode="&#xe650;" 
d="M121 747v-798h798v798h-798zM731 159l-182 48l-142 -123l-11 187l-161 97l175 69l43 183l119 -145l187 16l-101 -159z" />
    <glyph glyph-name="icon1" unicode="&#xe628;" 
d="M839 672h-654q-13 0 -22 -9t-9 -22v-706q0 -13 9 -22t22 -9h654q13 0 22 9t9 22v706q0 13 -9 22t-22 9zM283.5 54q-20.5 0 -35.5 14.5t-15 35t15 35.5t35.5 15t35 -15t14.5 -35.5t-14.5 -35t-35 -14.5zM283.5 238q-20.5 0 -35.5 14.5t-15 35.5t15 35.5t35.5 14.5
t35 -14.5t14.5 -35.5t-14.5 -35.5t-35 -14.5zM283.5 423q-20.5 0 -35.5 14.5t-15 35t15 35.5t35.5 15t35 -15t14.5 -35.5t-14.5 -35t-35 -14.5zM780 84q0 -12 -9 -21t-21 -9h-323q-13 0 -21.5 9t-8.5 21v39q0 13 8.5 22t21.5 9h323q12 0 21 -9t9 -22v-39zM780 269
q0 -13 -9 -22t-21 -9h-323q-13 0 -21.5 9t-8.5 22v38q0 13 8.5 22t21.5 9h323q12 0 21 -9t9 -22v-38zM780 453q0 -12 -9 -21t-21 -9h-323q-13 0 -21.5 9t-8.5 21v39q0 13 8.5 22t21.5 9h323q12 0 21 -9t9 -22v-39z" />
    <glyph glyph-name="weibo" unicode="&#xe619;" 
d="M730 320l15 35q29 92 -54 107q-67 12 -205 -33q34 29 33 73t-30 65q-30 19 -69 18.5t-84 -22.5t-90 -54.5t-86 -76.5t-72.5 -89.5t-50.5 -93t-19 -86.5q0 -44 24.5 -89t71 -84t126.5 -64t180 -25q101 0 183 21t132.5 53t85 71.5t48 75t13.5 65.5q0 37 -15.5 64t-38 39.5
t-44.5 20t-38 8.5zM432 -49.5q-123 -11.5 -215.5 39.5t-100 134.5t73.5 150.5t204 78.5t215.5 -39.5t100.5 -134.5t-73.5 -150.5t-204.5 -78.5zM374 273q-67 -11 -107 -59.5t-30.5 -105.5t63.5 -89.5t120.5 -21t107 60t30.5 105.5t-63.5 89t-120.5 21zM358.5 56
q-21.5 -6 -40.5 4t-24.5 29.5t6 37.5t33 24t40.5 -3.5t24.5 -29.5t-6 -38t-33 -24zM433 141q-11 0 -19 7.5t-8 18.5t8 19t19 8t19 -8t8 -19t-8 -18.5t-19 -7.5zM951 604q-44 57 -113 80.5t-153 11.5q-14 -2 -23 -13.5t-7 -25.5t13.5 -22.5t26.5 -6.5q134 19 201 -66
q30 -39 38 -89t-10 -93q-5 -13 0.5 -26t18.5 -19q7 -2 13 -2q24 0 32 21q25 60 14.5 129t-51.5 121zM718 570q-14 -2 -22.5 -13.5t-6.5 -25.5t13.5 -22.5t25.5 -6.5q49 7 72 -22q10 -13 12.5 -30t-3.5 -32q-5 -13 0.5 -26t18.5 -19q7 -2 13 -2q24 0 33 21q12 32 7 67.5
t-27 62.5q-47 61 -136 48z" />
    <glyph glyph-name="shezhi" unicode="&#xe620;" 
d="M522 451q-61 0 -104.5 -43.5t-43.5 -105t43.5 -105t104.5 -43.5t104 43.5t43 105t-43 105t-104 43.5zM521.5 213q-36.5 0 -62.5 26.5t-26 63t26 63t62.5 26.5t62.5 -26.5t26 -63t-26 -63t-62.5 -26.5zM938 197l-69 41q6 34 6 64.5t-6 64.5l69 41q21 12 27.5 35.5
t-5.5 45.5l-59 103q-12 21 -36 27.5t-45 -5.5l-70 -41q-51 44 -110 65v51q0 25 -17.5 42t-41.5 17h-118q-25 0 -42 -17t-17 -42v-51q-59 -21 -111 -65l-70 40q-21 13 -44.5 6.5t-35.5 -27.5l-59 -103q-12 -22 -6 -45.5t27 -35.5l69 -41q-6 -35 -6 -65t6 -64l-69 -41
q-21 -12 -27 -36t6 -45l59 -103q12 -21 35.5 -27.5t44.5 5.5l70 41q52 -44 111 -65v-51q0 -25 17 -42t42 -17h118q24 0 41.5 17t17.5 42v51q59 21 110 65l70 -41q21 -12 45 -5.5t36 27.5l59 103q12 22 5.5 45.5t-27.5 35.5zM894 120l-30 -51q-6 -11 -17.5 -14t-22.5 3
l-82 47q-65 -74 -161 -94v-65q0 -13 -9 -21.5t-21 -8.5h-59q-12 0 -20.5 8.5t-8.5 21.5v65q-96 20 -162 94l-82 -47q-10 -6 -22 -3t-18 14l-29 51q-6 11 -3 23t13 18l83 48q-16 47 -16 93.5t16 93.5l-83 48q-10 6 -13 18t3 23l29 51q6 11 18 14t22 -3l82 -47q66 74 162 94
v65q0 13 8.5 21.5t20.5 8.5h59q12 0 21 -8.5t9 -21.5v-65q96 -20 161 -94l82 47q11 6 22.5 3t17.5 -14l30 -51q6 -11 3 -23t-14 -18l-82 -48q16 -47 16 -93.5t-16 -93.5l82 -48q11 -6 14 -18t-3 -23z" />
    <glyph glyph-name="iconhuoche" unicode="&#xe639;" 
d="M850 561h-458q-6 0 -10 -4.5t-4 -10.5v-43v-2v-280h14v-1h458v1h14v325q0 6 -4 10.5t-10 4.5v0zM358 144q-13 35 -48 46q-12 4 -23.5 4t-23.5 -4q-35 -11 -48 -46q-3 -7 -4 -15q-1 -6 -1 -12v-1.5v-0.5q1 -32 23 -54t53.5 -22t53.5 22t23 54v0.5v1.5q0 6 -1 12
q-1 8 -4 15v0zM318 115q0 -13 -9.5 -22t-22 -9t-22 9t-9.5 22l-0.5 0.5t-0.5 1.5q0 6 3 12q4 10 13 15q8 5 16.5 5t16.5 -5q9 -5 13 -15q3 -6 3 -12q0 -1 -0.5 -1.5l-0.5 -0.5v0zM631 190q7 7 16 12h-279q-3 0 -6 2v0.5v0.5h-1q-2 3 -2 7v8v234q-5 5 -11 5h-118q-5 0 -8 -3
t-7.5 -6.5t-14 -16t-17 -26.5t-13.5 -36t-6 -46v-110q-4 -4 -4 -10v-76q0 -6 4 -10t10 -4h16v0.5v1.5q0 6 1 12q1 8 3 15q8 28 30 46q11 9 23 15q10 5 20 7t19.5 2t19.5 -2t20 -7q12 -6 23 -15h-0.5h-0.5h1q22 -18 30 -46q2 -7 3 -15q1 -7 1 -12v-1.5v-0.5h214v0.5v1.5
q0 5 1 12q1 8 3 15q8 28 30 46v0zM333 343h-139q6 53 42 86h97v-86v0zM765 144q-14 35 -49 46q-11 4 -23 4t-23 -4q-35 -11 -49 -46q-2 -7 -4 -15q-1 -6 -1 -12v-1.5v-0.5q1 -32 23.5 -54t53.5 -22t53.5 22t23.5 54v0.5v1.5q0 6 -1 12q-2 8 -4 15v0zM725 115q-1 -13 -10 -22
t-22 -9t-22 9t-10 22v0.5v1.5q0 6 3 12q4 10 13 15q7 5 16 5t17 -5q9 -5 13 -15q2 -6 2 -12v-1.5v-0.5v0zM731 206l1 -1v0q5 -2 7 -3q9 -5 16 -12q22 -18 30 -46q2 -6 3 -15q1 -7 1 -12v-1.5v-0.5h31q6 0 10.5 4t4.5 10v73v3v1h-104v0zM731 206z" />
    <glyph glyph-name="tabsdaipingjia" unicode="&#xe686;" 
d="M878 568q0 26 -18 44t-44 18h-614q-25 0 -43 -18t-18 -44v-450q0 -25 18 -43t43 -18h225l82 -82l82 82h225q26 0 44 18t18 43v74h-1q0 8 -6 13.5t-14 5.5t-14 -5.5t-6 -13.5v0v-53q0 -17 -12 -29t-29 -12h-225l-62 -62l-61 62h-225q-17 0 -29 12t-12 29v409q0 17 12 29
t29 12h573q17 0 29 -12t12 -29v-194v0v-1.5v-1.5q0 -8 6 -14t14.5 -6t14.5 6t6 14q0 1 -0.5 1.5t-0.5 1.5h1v214zM711 310h-386q-8 0 -13.5 -6t-5.5 -14t5.5 -13.5t13.5 -5.5h386q8 0 13.5 5.5t5.5 13.5t-5.5 14t-13.5 6zM711 440h-386q-8 0 -13.5 -5.5t-5.5 -13.5
t5.5 -13.5t13.5 -5.5h386q8 0 13.5 5.5t5.5 13.5t-5.5 13.5t-13.5 5.5z" />
    <glyph glyph-name="list" unicode="&#xe62a;" 
d="M65 2h894v99h-894v-99zM65 250h894v100h-894v-100zM65 598v-99h894v99h-894z" />
    <glyph glyph-name="list1" unicode="&#xe696;" horiz-adv-x="1106" 
d="M151 812q36 0 60.5 -24t24.5 -60v-64q0 -36 -24.5 -60.5t-60.5 -24.5h-67q-35 0 -59.5 24.5t-24.5 60.5v64q0 36 24.5 60t59.5 24h67v0zM1021 812q35 0 59.5 -24t24.5 -60v-64q0 -36 -24.5 -60.5t-59.5 -24.5h-541q-36 0 -60.5 24.5t-24.5 60.5v64q0 36 24.5 60t60.5 24
h541v0zM151 417q36 0 60.5 -24.5t24.5 -60.5v-64q0 -35 -24.5 -59.5t-60.5 -24.5h-67q-35 0 -59.5 24.5t-24.5 59.5v64q0 36 24.5 60.5t59.5 24.5h67v0zM1021 417q35 0 59.5 -24.5t24.5 -60.5v-64q0 -35 -24.5 -59.5t-59.5 -24.5h-541q-36 0 -60.5 24.5t-24.5 59.5v64
q0 36 24.5 60.5t60.5 24.5h541v0zM151 21q36 0 60.5 -24.5t24.5 -58.5v-65q0 -36 -24.5 -60.5t-60.5 -24.5h-67q-35 0 -59.5 24.5t-24.5 60.5v65q0 34 24.5 58.5t59.5 24.5h67v0zM1021 21q35 0 59.5 -24.5t24.5 -58.5v-65q0 -36 -24.5 -60.5t-59.5 -24.5h-541
q-36 0 -60.5 24.5t-24.5 60.5v65q0 34 24.5 58.5t60.5 24.5h541v0zM1021 21z" />
    <glyph glyph-name="liwu" unicode="&#xe617;" 
d="M744 -108h-462q-60 0 -103 43t-43 103v341l7 16h13h735v-357q0 -60 -43 -103t-104 -43zM177 354v-316q0 -43 31 -74t74 -31h462q44 0 75 31t31 74v316h-673zM891 354h-756q-34 0 -58.5 24.5t-24.5 58.5v42q0 35 24.5 59.5t58.5 24.5h756q35 0 59.5 -24.5t24.5 -59.5v-42
q0 -34 -24.5 -58.5t-59.5 -24.5zM135 522q-17 0 -29.5 -12.5t-12.5 -30.5v-42q0 -18 12.5 -30t29.5 -12h756q18 0 30.5 12t12.5 30v42q0 18 -12.5 30.5t-30.5 12.5h-756zM513.5 -66q-8.5 0 -14.5 6t-6 14v567q0 9 6 15t14.5 6t14.5 -6t6 -15v-567q0 -8 -6 -14t-14.5 -6z
M536 522h-252l-6 6q-56 56 -51 131q3 53 35 77q23 19 60 19q35 0 73 -18t70 -49q59 -59 68 -144zM302 563h187q-13 56 -53 96q-56 55 -114 55q-22 0 -35 -10q-17 -13 -19 -48q-3 -52 34 -93zM742 522h-252l3 22q9 85 69 144q31 31 69 49t74 18t59 -18q32 -25 35 -78
q5 -75 -51 -131zM537 563h188q37 41 33 93q-2 35 -19 48q-12 10 -34 10q-59 0 -114 -55q-40 -40 -54 -96z" />
    <glyph glyph-name="qq1" unicode="&#xe627;" 
d="M890 253q-19 47 -63 95q12 19 12 38q0 41 -46 76q-12 107 -92.5 180.5t-190 73.5t-190.5 -73.5t-92 -180.5q-46 -35 -46 -76q0 -19 12 -38q-44 -48 -63 -95q-40 -98 -17 -158q10 -25 25 -24.5t29 24.5q6 11 19 31q21 -60 67 -108q-31 -9 -44 -19q-25 -21 -26.5 -43.5
t20.5 -41.5q31 -26 119 -29.5t157 29.5q17 -2 30 -2q16 0 33 2q69 -33 157.5 -29.5t119.5 29.5q21 19 19.5 41.5t-26.5 43.5q-13 10 -45 19q45 48 65 108q14 -20 20 -31q14 -24 29 -24.5t25 24.5q23 60 -17 158v0z" />
    <glyph glyph-name="list3" unicode="&#xe8a6;" 
d="M96 620h832q13 0 22.5 9.5t9.5 22.5t-9.5 22.5t-22.5 9.5h-832q-13 0 -22.5 -9.5t-9.5 -22.5t9.5 -22.5t22.5 -9.5zM928 364h-832q-13 0 -22.5 -9.5t-9.5 -22.5t9.5 -22.5t22.5 -9.5h832q13 0 22.5 9.5t9.5 22.5t-9.5 22.5t-22.5 9.5zM928 44h-832q-13 0 -22.5 -9.5
t-9.5 -22.5t9.5 -22.5t22.5 -9.5h832q13 0 22.5 9.5t9.5 22.5t-9.5 22.5t-22.5 9.5z" />
    <glyph glyph-name="iconfontgengduo" unicode="&#xe616;" 
d="M76 735q-13 0 -22.5 -9.5t-9.5 -23.5v-317q0 -13 9.5 -22.5t22.5 -9.5h347q13 0 22.5 9.5t9.5 22.5v317q0 14 -9.5 23.5t-22.5 9.5h-347zM76 241q-13 0 -22.5 -9.5t-9.5 -22.5v-317q0 -14 9.5 -23.5t22.5 -9.5h347q13 0 22.5 9.5t9.5 23.5v317q0 13 -9.5 22.5t-22.5 9.5
h-347zM600 241q-13 0 -22.5 -9.5t-9.5 -22.5v-317q0 -14 9.5 -23.5t22.5 -9.5h347q13 0 22.5 9.5t9.5 23.5v317q0 13 -9.5 22.5t-22.5 9.5h-347zM947 735h-347q-13 0 -22.5 -9.5t-9.5 -23.5v-317q0 -13 9.5 -22.5t22.5 -9.5h347q13 0 22.5 9.5t9.5 22.5v317q0 14 -9.5 23.5
t-22.5 9.5zM891 453q0 -7 -5.5 -12.5t-13.5 -5.5h-197q-8 0 -13 5.5t-5 12.5v181q0 8 5 13t13 5h197q8 0 13.5 -5t5.5 -13v-181z" />
    <glyph glyph-name="lianxiren" unicode="&#xe607;" horiz-adv-x="1188" 
d="M815 468q0 94 -46.5 173t-126 125t-173 46t-173 -46t-126 -125t-46.5 -173q0 -81 35.5 -151.5t96.5 -118.5q-109 -55 -178.5 -158.5t-77.5 -228.5h52q9 118 79 215t177 139q84 -41 161 -41q78 0 150 35l35 20l29 19q61 48 96.5 118.5t35.5 151.5zM900 562.5
q0 14.5 10.5 25t26.5 10.5h214q15 0 25.5 -10t10.5 -25t-10.5 -25.5t-25.5 -10.5h-214q-16 0 -26.5 10.5t-10.5 25zM867 263.5q0 14.5 10.5 25t24.5 10.5h250q14 0 24.5 -10.5t10.5 -25t-10.5 -25t-24.5 -10.5h-250q-15 0 -25 10.5t-10 25zM996 -12q0 15 10.5 25.5
t25.5 10.5h119q15 0 25.5 -10.5t10.5 -25t-10.5 -25.5t-25.5 -11h-119q-15 0 -25.5 10.5t-10.5 25.5zM761 148v-1q-9 9 -21 9q-32 0 -32 -24q0 -18 17 -28v0q136 -98 151 -293h63q-7 100 -54 188t-124 149zM469 180q-119 0 -203.5 84.5t-84.5 203.5t84.5 203.5t204 84.5
t204 -84.5t84.5 -203.5t-84.5 -203.5t-204.5 -84.5v0z" />
    <glyph glyph-name="touzi" unicode="&#xe640;" 
d="M0 -148h1024v-64h-1024v64zM0 812h64v-1024h-64v1024zM224 44h64v-192h-64v192zM352 108h64v-256h-64v256zM480 172h64v-320h-64v320zM608 108h64v-256h-64v256zM736 236h64v-384h-64v384zM864 236h64v-384h-64v384zM64 44h64v-64h-64v64zM64 172h64v-64h-64v64zM64 300
h64v-64h-64v64zM64 428h64v-64h-64v64zM64 556h64v-64h-64v64zM64 684h64v-64h-64v64zM282 89l-52 38l212 283l164 -131l268 268l45 -46l-308 -308l-157 125zM928 268h-64v224h-224v64h288v-288z" />
    <glyph glyph-name="lianxi" unicode="&#xe638;" 
d="M508 -103q-82 0 -158 31q-73 31 -129.5 87.5t-86.5 129.5q-32 75 -32 158t32 158q30 73 86.5 129.5t129.5 87.5q76 32 158.5 32t157.5 -32q73 -31 129.5 -87.5t87.5 -129.5q32 -75 32 -158t-32 -158q-31 -73 -87.5 -129.5t-129.5 -87.5q-75 -31 -158 -31v0zM508 687
q-104 0 -192.5 -51.5t-140 -140t-51.5 -192.5t51.5 -192.5t140 -140t192.5 -51.5t192.5 51.5t140 140t51.5 192.5t-51.5 192.5t-140 140t-192.5 51.5v0zM508 687zM694 313q24 0 43.5 21t19.5 49q0 70 -63 70q-32 0 -47 -19t-15 -51q0 -28 20 -49t42 -21zM686 291h17q4 0 4 4
v7q0 4 -4 4h-17q-4 0 -4 -4v-7q0 -4 4 -4zM706 258l2 13q0 4 -2 7l-9 10q-3 3 -5 0l-9 -10q-3 -3 -2 -7l2 -13q8 -10 11 -21q4 11 12 21zM813 186q0 39 -19.5 70.5t-50.5 47.5q-6 -18 -15.5 -30t-16.5 -18t-12 -20.5t-5 -38.5q0 24 -5 38.5t-12 20.5t-16 18t-15 30
q-32 -16 -51.5 -47.5t-19.5 -70.5v-17v-15t0.5 -11.5t2 -9.5l4.5 -6t7 -5.5t10.5 -3t14.5 -2t20 -1.5v86q0 2 1.5 2t1.5 -2v-86h57h58v86q0 2 1.5 2t1.5 -2v-86q16 1 25.5 1.5t16.5 3.5t10.5 5t5 9.5t1.5 12t-0.5 17.5t-0.5 22zM330 313q24 0 43.5 21t19.5 49q0 70 -63 70
q-32 0 -47.5 -19t-15.5 -51q0 -28 20.5 -49t42.5 -21zM321 291h18q4 0 4 4v7q0 4 -4 4h-18q-3 0 -3 -4v-7q0 -4 3 -4zM342 258l2 13q0 4 -3 7l-8 10q-3 3 -6 0l-8 -10q-3 -3 -2 -7l1 -13q9 -10 12 -21q4 11 12 21zM449 186q0 39 -19.5 70.5t-51.5 47.5q-6 -18 -15 -30
t-16 -18t-12 -20.5t-5 -38.5q0 24 -5 38.5t-12 20.5t-16 18t-15 30q-32 -16 -51.5 -47.5t-19.5 -70.5v-17v-15t0.5 -11.5t2 -9.5t4 -6t7 -5t11 -3t14.5 -2.5t19 -1.5v86q0 2 1.5 2t1.5 -2v-86h58h58v86q0 2 1.5 2t1.5 -2v-86q15 1 25 1.5t17 3.5t10 5t5 9.5t1.5 12
t-0.5 17.5v22zM515 342q33 0 59.5 28.5t26.5 67.5q0 95 -86 95q-44 0 -64.5 -26t-20.5 -69q0 -38 27.5 -67t57.5 -29zM504 313h23q5 0 5 5v9q0 5 -5 5h-23q-6 0 -6 -5v-9q0 -5 6 -5zM531 267l3 18q0 6 -3 10l-12 13q-4 5 -7 0l-12 -13q-4 -4 -3 -10l3 -18q11 -13 15 -28
q5 15 16 28zM676 170q0 53 -26 96t-69 64q-8 -24 -20.5 -40.5t-22 -24.5t-16.5 -27.5t-7 -52.5q0 33 -7 52.5t-16 27.5t-21.5 24.5t-20.5 40.5q-44 -21 -70 -64t-26 -96q0 -9 -0.5 -23.5t-0.5 -20t1 -15.5t2.5 -13t5.5 -8.5t9.5 -7t14.5 -4t20 -3.5t27 -1v116q0 2 2 2t2 -2
v-117h78h79v117q0 2 2 2t2 -2v-117q21 1 34.5 2t23 5.5t14 7t6.5 12.5t2 16.5t-1 24t-1 29.5z" />
    <glyph glyph-name="dingwei1" unicode="&#xe65b;" 
d="M818 548q-4 10 -14 14t-19.5 0t-14 -13.5t-0.5 -19.5q24 -60 24 -114q0 -71 -83 -213q-29 -50 -66 -104q-48 -70 -105 -144q-14 -18 -28 -35q-14 17 -28 35q-57 73 -105 144q-38 55 -67 104q-83 142 -83 213q0 117 83 200t200 83q79 0 150 -45q9 -6 19.5 -3.5t16 11.5
t3.5 19.5t-11 15.5q-84 53 -178 53q-91 0 -168 -45t-121.5 -121.5t-44.5 -167.5q0 -85 90 -239q30 -51 68 -107q48 -71 107 -146q20 -25 35 -45l14 -16q8 -9 20 -9t19.5 9t13.5 16q16 21 35 45q59 75 107 146q39 57 68 107q90 154 90 239q0 64 -27 133zM358 405
q0 -61 42.5 -103.5t103.5 -42.5t103.5 42.5t42.5 103.5t-42.5 103.5t-103.5 42.5t-103.5 -42.5t-42.5 -103.5zM599 405q0 -39 -28 -67t-67 -28t-67 28t-28 67t28 67t67 28t67 -28t28 -67z" />
    <glyph glyph-name="shopcar" unicode="&#xe644;" horiz-adv-x="1366" 
d="M454 157q7 -22 28 -37t44 -15h435h16l4 14l100 348q7 26 -7.5 45.5t-40.5 19.5h-426q-8 0 -14 -5.5t-6 -14.5q0 -8 6 -14t14 -6h426q13 0 9 -14l-100 -347l19 14h-435q-10 0 -20.5 7.5t-13.5 17.5l-169 501q-3 8 -10.5 12t-15.5 1t-11.5 -10.5t-1.5 -15.5zM587 -8
q0 34 -23.5 58t-57.5 24t-57.5 -24t-23.5 -58q0 -33 23.5 -57t57.5 -24t57.5 24t23.5 57v0zM466 -8q0 17 11.5 29t28.5 12t28.5 -12t11.5 -29q0 -16 -11.5 -28t-28.5 -12t-28.5 12t-11.5 28v0zM1012 -8q0 34 -23.5 58t-57.5 24q-33 0 -57 -24t-24 -58q0 -33 24 -57t57 -24
q34 0 57.5 24t23.5 57v0zM891 -8q0 17 11.5 29t28.5 12t29 -12t12 -29q0 -16 -12 -28t-29 -12q-16 0 -28 12t-12 28v0z" />
    <glyph glyph-name="sousuo" unicode="&#xe609;" horiz-adv-x="1669" 
d="M661 247zM1668 205zM451 746q-104 0 -193 -53.5t-140.5 -145.5t-51.5 -200.5t51.5 -200.5t140.5 -145.5t193.5 -53.5t193 53.5t140.5 145.5t52 200.5t-52 200.5t-140.5 145.5t-193.5 53.5v0v0zM672 118q-92 -94 -221 -94t-220 94.5t-91 228.5t91 228t220 94t220.5 -94
t91.5 -228t-91 -229v0v0zM915 -81l-87 91q-10 12 -26 12t-28 -12q-12 -11 -12 -27.5t12 -28.5l87 -90q10 -11 26 -11t28 10.5t12 27t-12 28.5v0v0zM915 -81z" />
    <glyph glyph-name="list2" unicode="&#xe64c;" 
d="M267 327h27q8 0 14 6t6 14v28q0 8 -6 14t-14 6h-27q-9 0 -14.5 -6t-5.5 -14v-28q0 -8 5.5 -14t14.5 -6zM393 327h375q8 0 14 6t6 14v28q0 8 -6 14t-14 6h-375q-9 0 -14.5 -6t-5.5 -14v-28q0 -8 5.5 -14t14.5 -6zM393 58h173q8 0 14 6t6 14v27q0 9 -6 14.5t-14 5.5h-173
q-9 0 -14.5 -5.5t-5.5 -14.5v-27q0 -8 5.5 -14t14.5 -6zM393 193h375q8 0 14 5.5t6 14.5v27q0 8 -6 14t-14 6h-375q-9 0 -14.5 -6t-5.5 -14v-27q0 -9 5.5 -14.5t14.5 -5.5zM267 193h27q8 0 14 5.5t6 14.5v27q0 8 -6 14t-14 6h-27q-9 0 -14.5 -6t-5.5 -14v-27q0 -9 5.5 -14.5
t14.5 -5.5zM267 58h27q8 0 14 6t6 14v27q0 9 -6 14.5t-14 5.5h-27q-9 0 -14.5 -5.5t-5.5 -14.5v-27q0 -8 5.5 -14t14.5 -6zM808 710h-592q-33 0 -56.5 -23.5t-23.5 -56.5v-659q0 -33 23.5 -56.5t56.5 -23.5h448q13 0 27.5 6.5t22.5 15.5l154 170q20 23 20 53v494
q0 33 -23.5 56.5t-56.5 23.5zM820 161h-131q-25 0 -42.5 -17.5t-17.5 -42.5v-143h-387q-12 0 -21 9t-9 21v481h608v-308zM820 536h-608v77q0 12 9 21t21 9h548q13 0 21.5 -9t8.5 -21v-77z" />
    <glyph glyph-name="tianjia1" unicode="&#xe6d2;" 
d="M801 590q-59 59 -135.5 89.5t-154.5 30.5t-154.5 -30.5t-135.5 -89.5q-79 -79 -107 -184.5t0 -211t107 -184.5t184.5 -107t211 0t184.5 107t107 184.5t0.5 211t-106.5 184.5h-1zM543 42q0 -13 -9.5 -22.5t-23 -9.5t-22.5 9.5t-9 22.5v225h-225q-13 0 -22.5 9t-9.5 22.5
t9.5 23t22.5 9.5h225v224q0 14 9 23t22.5 9t23 -9t9.5 -23v-224h224q14 0 23 -9.5t9 -23t-9 -22.5t-23 -9h-224v-225v0zM543 42z" />
    <glyph glyph-name="guanbi" unicode="&#xe614;" 
d="M833 621q-65 65 -150 99t-171 34t-171 -34t-150 -99t-99 -150t-34 -171t34 -171t99 -150t150 -99t171 -34t171 34t150 99t99 150t34 171t-34 171t-99 150zM793 19q-57 -57 -131.5 -86.5t-149.5 -29.5t-149.5 29.5t-131.5 86.5q-76 76 -103 178.5t0 205t103 178.5
q57 57 131.5 86.5t149.5 29.5t149.5 -29.5t131.5 -86.5t86.5 -131.5t29.5 -149.5t-29.5 -149.5t-86.5 -131.5zM700 454l-34 34l-155 -154l-154 154l-33 -34l154 -154l-154 -154l33 -34l154 154l155 -154l34 34l-155 154z" />
    <glyph glyph-name="014coingoldmoneycashoutcashoutfinancecurrency" unicode="&#xe641;" 
d="M867 -196q-48 0 -85.5 15t-44.5 40q-39 -22 -101 -22t-101 22q-7 -25 -45 -40t-85.5 -15t-85.5 15t-45 40q-38 -22 -101 -22q-53 0 -92.5 18t-39.5 48v67v66q0 30 39.5 48t92.5 18q61 0 99 -21v54v66v66q0 31 39.5 48.5t93 17.5t93 -17.5t39.5 -48.5v-54q38 21 98.5 21
t99.5 -21v54v66v66v66v66q0 31 39.5 48.5t92.5 17.5t92.5 -17.5t39.5 -48.5v-66v-66v-66v-66v-66v-66v-66v-66v-66v-67q0 -30 -39.5 -48t-92.5 -18zM173.5 69q-28.5 0 -52.5 -6t-35.5 -13.5t-11.5 -14t11.5 -14t35.5 -13t52.5 -5.5t52.5 5.5t35 13t11 14t-11 14t-35 13.5
t-52.5 6zM272 -9q-38 -21 -98.5 -21t-99.5 20v-20q0 -7 11.5 -14.5t35.5 -13t52.5 -5.5t52.5 5.5t35 13t11 14.5v21zM272 -76q-38 -21 -98.5 -21t-99.5 21v-21q0 -6 11.5 -13.5t35.5 -13.5t52.5 -6t52.5 6t35 13.5t11 13.5v21zM404.5 300q-28.5 0 -52.5 -6t-35.5 -13.5
t-11.5 -13.5t11.5 -13.5t35.5 -13.5t52.5 -6t52.5 6t35.5 13.5t11.5 13.5t-11.5 13.5t-35.5 13.5t-52.5 6zM504 222q-39 -21 -99.5 -21t-99.5 21v-21q0 -6 11.5 -13.5t35.5 -13.5t52.5 -6t52.5 6t35.5 13.5t11.5 13.5v21zM504 156q-39 -21 -99.5 -21t-99.5 21v-21
q0 -7 11.5 -14t35.5 -13t52.5 -6t52.5 6t35.5 13t11.5 14v21zM504 90q-39 -21 -99.5 -21t-99.5 21v-21q0 -7 11.5 -14.5t35.5 -13t52.5 -5.5t52.5 5.5t35.5 13t11.5 14.5v21zM504 24q-39 -21 -99.5 -21t-99.5 21v-21q0 -7 11.5 -14.5t35.5 -13t52.5 -5.5t52.5 5.5t35.5 13
t11.5 14.5v21zM504 -43q-39 -20 -99.5 -20t-99.5 20v-20q0 -7 11.5 -14.5t35.5 -13.5t52.5 -6t52.5 6t35.5 13.5t11.5 14.5v20zM504 -109q-39 -21 -99.5 -21t-99.5 22v-22q0 -6 11.5 -13.5t35.5 -13.5t52.5 -6t52.5 6t35.5 13.5t11.5 13.5v21zM635.5 201q-28.5 0 -52 -6
t-35 -13.5t-11.5 -14t11.5 -13.5t35 -13t52 -6t52.5 6t35.5 13t11.5 13.5t-11.5 14t-35.5 13.5t-52.5 6zM735 123q-39 -21 -99.5 -21t-98.5 21v-21q0 -7 11.5 -14t35 -13t52 -6t52.5 6t35.5 13t11.5 14v21zM735 57q-39 -21 -99.5 -21t-98.5 21v-21q0 -7 11.5 -14.5t35 -13
t52 -5.5t52.5 5.5t35.5 13t11.5 14.5v21zM735 -10q-39 -20 -99.5 -20t-98.5 20v-20q0 -7 11.5 -14.5t35 -13t52 -5.5t52.5 5.5t35.5 13t11.5 14.5v20zM735 -76q-39 -21 -99.5 -21t-98.5 21v-21q0 -6 11.5 -13.5t35 -13.5t52 -6t52.5 6t35.5 13.5t11.5 13.5v21zM867 564
q-29 0 -52.5 -6t-35 -13.5t-11.5 -13.5t11.5 -13.5t35 -13.5t52.5 -6t52.5 6t35 13.5t11.5 13.5t-11.5 13.5t-35 13.5t-52.5 6zM966 486q-38 -21 -99 -21t-99 21v-21q0 -6 11.5 -13.5t35 -13.5t52.5 -6t52.5 6t35 13.5t11.5 13.5v21zM966 420q-38 -21 -99 -21t-99 21v-21
q0 -6 11.5 -13.5t35 -13.5t52.5 -6t52.5 6t35 13.5t11.5 13.5v21zM966 354q-38 -21 -99 -21t-99 21v-21q0 -6 11.5 -13.5t35 -13.5t52.5 -6t52.5 6t35 13.5t11.5 13.5v21zM966 288q-38 -21 -99 -21t-99 21v-21q0 -6 11.5 -13.5t35 -13.5t52.5 -6t52.5 6t35 13.5t11.5 13.5
v21zM966 222q-38 -21 -99 -21t-99 21v-21q0 -6 11.5 -13.5t35 -13.5t52.5 -6t52.5 6t35 13.5t11.5 13.5v21zM966 156q-38 -21 -99 -21t-99 21v-21q0 -7 11.5 -14t35 -13t52.5 -6t52.5 6t35 13t11.5 14v21zM966 90q-38 -21 -99 -21t-99 21v-21q0 -7 11.5 -14.5t35 -13
t52.5 -5.5t52.5 5.5t35 13t11.5 14.5v21zM966 24q-38 -21 -99 -21t-99 21v-21q0 -7 11.5 -14.5t35 -13t52.5 -5.5t52.5 5.5t35 13t11.5 14.5v21zM966 -43q-38 -20 -99 -20t-99 20v-20q0 -7 11.5 -14.5t35 -13.5t52.5 -6t52.5 6t35 13.5t11.5 14.5v20zM966 -109
q-38 -21 -99 -21t-99 21v-21q0 -6 11.5 -13.5t35 -13.5t52.5 -6t52.5 6t35 13.5t11.5 13.5v21zM619 647q-7 0 -11 5l-88 87v-324q0 -6 -5 -11t-11.5 -5t-11.5 5t-5 11v324l-87 -87q-5 -5 -12 -5t-11.5 4.5t-4.5 11.5t4 12l116 115q8 8 18 4v0v0q3 -1 5 -4v0v0l116 -115
q5 -5 5 -12t-5 -11.5t-12 -4.5z" />
    <glyph glyph-name="iconfontjiantou" unicode="&#xe613;" 
d="M562 443q14 0 23 -11q7 -9 6 -21.5t-10 -20.5l-113 -92l113 -101q10 -8 10.5 -20.5t-7.5 -21.5t-20.5 -9.5t-21.5 7.5l-124 110q-17 15 -16.5 36t17.5 35l124 102q8 7 19 7zM512 800q103 0 196.5 -40t161.5 -108t108 -161.5t40 -196.5t-40 -196.5t-108 -161.5
t-161.5 -108t-196.5 -40t-196.5 40t-161.5 108t-108 161.5t-40 196.5t40 196.5t108 161.5t161.5 108t196.5 40zM512 -152q91 0 173.5 35t142.5 95t95.5 142.5t35.5 173.5t-35.5 173.5t-95.5 142.5t-142.5 95.5t-173.5 35.5t-173.5 -35.5t-142.5 -95.5t-95.5 -142.5
t-35.5 -173.5t35.5 -173.5t95.5 -142.5t142.5 -95t173.5 -35z" />
    <glyph glyph-name="iconfontaixin" unicode="&#xe608;" 
d="M512 792q-101 0 -193.5 -39.5t-159 -106t-106 -158.5t-39.5 -193.5t39.5 -193.5t106 -158.5t159 -106t193.5 -39.5t193.5 39.5t159 106t106 158.5t39.5 193.5t-39.5 193.5t-106 158.5t-159 106t-193.5 39.5zM755 295l-227 -257q-6 -8 -15.5 -8t-16.5 8l-230 260
q-41 45 -41 105q0 65 45.5 110.5t110.5 45.5q40 0 75 -20t56 -53q21 33 56 53t75 20q65 0 110.5 -45.5t45.5 -110.5q0 -62 -44 -108z" />
    <glyph glyph-name="baoxian" unicode="&#xe642;" 
d="M545 637v56q0 15 -10 25t-24.5 10t-24.5 -10t-10 -25v-56q-161 -13 -273.5 -123t-118.5 -264q0 -6 5 -8q5 -1 8 4q17 34 52.5 54t76.5 20q47 0 85 -25t52 -65q1 -4 6 -4t7 4q11 32 37.5 54.5t62.5 30.5v-321q0 -22 -15.5 -37t-37 -15t-37 15t-15.5 37q0 15 -10 25
t-24.5 10t-24.5 -10t-10 -25q0 -50 35.5 -85.5t86 -35.5t86 35.5t35.5 85.5v322q37 -7 64.5 -30t39.5 -56q1 -4 6 -4t7 4q14 40 51.5 65t84.5 25q41 0 76.5 -20t52.5 -54q3 -5 8 -4q6 2 5 8q-4 102 -57.5 188t-142.5 138.5t-195 60.5z" />
    <glyph glyph-name="gaotie24" unicode="&#xe66b;" 
d="M831 -10h-766v101h766q20 0 34 -15t14 -36t-14 -35.5t-34 -14.5zM109 36h722q4 0 4 4.5t-4 4.5h-722v-9zM831 121h-766v489h341q173 0 349 -114l66 -43h-181v-64h246l6 -8q67 -73 67 -126q0 -79 -40 -111q-28 -23 -88 -23zM109 167h722q45 0 62 13q22 18 22 75
q0 32 -48 88h-271v156h61q-130 65 -251 65h-297v-397zM494 343h-70q-17 0 -28.5 12t-11.5 29v74q0 17 11.5 29t28.5 12h70q17 0 28.5 -12t11.5 -29v-74q0 -17 -11.5 -29t-28.5 -12zM421 381h76v80h-76v-80zM282 343h-71q-16 0 -28 12t-12 29v74q0 17 12 29t28 12h71
q16 0 28 -12t12 -29v-74q0 -17 -12 -29t-28 -12zM208 381h76v80h-76v-80z" />
    <glyph glyph-name="sousuo1" unicode="&#xe66a;" 
d="M967 -109l-8 -8q-6 -6 -15 -6t-16 6l-228 228q-106 -95 -248 -95q-101 0 -186.5 49.5t-135 135t-49.5 186.5t49.5 186.5t135 135.5t186.5 50t186.5 -50t135 -135.5t49.5 -186.5q0 -134 -85 -237l229 -228q6 -7 6 -16t-6 -15zM769 387q0 131 -93 224t-224 93t-224 -93
t-93 -224t93 -224t224 -93t224 93t93 224zM419 581q-62 -10 -106 -54.5t-55 -106.5q0 -1 -1 -5q-7 -28 -29 -28q-11 0 -18.5 7.5t-7.5 18.5q0 3 1 8t1 7q13 76 65.5 131.5t126.5 72.5q12 3 20 2q11 -1 18 -8.5t7 -16.5q-1 -11 -6.5 -18t-10.5 -9z" />
    <glyph glyph-name="iconfontwujiaoxing" unicode="&#xe652;" 
d="M910 388l-265 38l-119 241l-119 -241l-265 -38l192 -188l-45 -264l237 124l237 -124l-45 264zM526 119l-168 -89l31 188l-136 133l189 27l84 171l84 -171l188 -27l-136 -133l32 -188z" />
    <glyph glyph-name="iconfontliucheng" unicode="&#xe635;" 
d="M264 536h62q7 0 12 5t5 12v137q0 7 -5 12t-12 5h-62q-7 0 -12 -5t-5 -12v-137q0 -7 5 -12t12 -5zM703 536h62q7 0 12 5t5 12v137q0 7 -5 12t-12 5h-62q-7 0 -12 -5t-5 -12v-137q0 -7 5 -12t12 -5zM838 642h-22v-89q0 -21 -15 -36t-36 -15h-62q-22 0 -37 15t-15 36v89
h-273v-89q0 -21 -15 -36t-37 -15h-62q-21 0 -36 15t-15 36v89h-22q-41 0 -70 -29t-29 -70v-559q0 -41 29 -70t70 -29h647q41 0 70 29t29 70v559q0 41 -29 70t-70 29v0zM875 -16q0 -15 -11 -25.5t-26 -10.5h-647q-15 0 -26 10.5t-11 25.5v375h721v-375v0v0z" />
    <glyph glyph-name="sousuo2" unicode="&#xe6b5;" 
d="M948 -82l-168 167q93 112 93 258q0 110 -54 203.5t-147.5 147.5t-203 54t-203 -54t-147.5 -147.5t-54 -203t54 -203t147.5 -147.5t202.5 -54q145 0 257 92l168 -168q11 -11 27 -11t27.5 11.5t11.5 27.5t-11 27zM145 343.5q0 87.5 43.5 162t118 118t162 43.5t162 -43.5
t118 -118t43.5 -162t-43.5 -162t-118 -118t-162 -43.5t-162 43.5t-118 118t-43.5 162z" />
    <glyph glyph-name="shangcheng" unicode="&#xe615;" 
d="M183 -118q-10 0 -16.5 6.5t-6.5 16.5v410l-9 10q-32 5 -56.5 28.5t-31.5 55.5q-1 8 -1 13q0 15 8 33l121 242q11 21 34 21h573q24 0 35 -21l119 -238v0q0 -2 1 -3v0q9 -20 9 -32v-1q0 -6 -1 -9v-2v0v-1q-6 -33 -30.5 -56.5t-57.5 -29.5l-9 -10v-410q0 -10 -6.5 -16.5
t-16.5 -6.5h-658zM808 -72l10 10v384l-6 9q-20 9 -36 26h-15q-10 -11 -23 -19l-5 -9v-259q0 -10 -7 -17t-17 -7h-395q-9 0 -16 7t-7 17v259l-5 9q-14 8 -24 19h-14q-16 -17 -36 -26l-6 -9v-384l10 -10h592zM676 93l10 10v211l-9 10q-43 2 -72 33h-15q-32 -34 -78 -34t-78 34
h-15q-29 -31 -72 -33l-9 -10v-211l10 -10h328zM621 424v0q3 -24 21 -39.5t41 -15.5q24 0 41.5 16t20.5 40v0v0q2 9 8.5 14.5t15.5 5.5t15.5 -6t8.5 -15v0q3 -24 20.5 -39.5t41 -15.5t41 16t20.5 39l-1 6l-119 236l-9 6h-551l-9 -6l-118 -236l-1 -6q3 -23 20.5 -39t41.5 -16
t41.5 16t19.5 40l1 1v0q1 8 8 13.5t15 5.5q9 0 16 -6t8 -15v0v0q3 -23 20.5 -39t41.5 -16t41.5 16t20.5 40v1v0q2 8 8.5 13.5t15 5.5t15.5 -5.5t8 -14.5q3 -24 20.5 -40t41.5 -16t41.5 16t20.5 40q1 9 7.5 14.5t15.5 5.5t16 -6t8 -15v0v0z" />
    <glyph glyph-name="tao" unicode="&#xe6b0;" 
d="M219.5 571q33.5 0 57 21t23.5 51t-23.5 51t-57 21t-57 -21t-23.5 -51t23.5 -51t57 -21zM153 542l-51 -78l94 -59q1 0 3 -1.5l8 -6t11 -9.5t10 -13t7 -17t0.5 -20.5t-7.5 -23.5q-12 -26 -53.5 -71t-75.5 -77.5t-35 -32.5l122 -76q26 57 47.5 101t27.5 57t12 27.5t14 38.5
q17 49 16 89.5t-27 66.5q-36 36 -53 50.5t-70 54.5zM945 562q-1 4 -3 11.5t-13.5 26t-29.5 34t-55 29.5t-85 18t-124 -5t-168 -36l29 56l-113 32l-5.5 -16.5t-16 -40t-26 -55.5t-35 -56.5t-44.5 -49.5q5 -3 13 -7.5t25 -14.5t28.5 -16l11.5 -6q31 31 60 68q24 10 52 22
q-48 -87 -88 -130l47 -41q33 31 68 69h41v-70h-158v-55h158v-133h-6q-44 2 -55 21q-6 9 -7 22.5t1.5 33.5t2.5 24h-109l-4 -2q0 -3 -1.5 -9.5t-2.5 -25t0.5 -35t8.5 -37t19.5 -35t36 -24t54.5 -8.5q169 -4 267 71l16 -59l89 37l-60 148l-72 -23l13 -50q-26 -20 -63 -32v116
h154v55h-154v70h154v55h-274q34 41 40 60l-48 13q319 114 318 -60v-316v-6t-1 -15t-4 -21t-11 -22t-19.5 -20.5t-31.5 -13.5t-46 -3l-67 15l-16 -65q6 -1 16.5 -3.5t41.5 -7t59 -4.5t63.5 7t62 23t47 48t25.5 78q22 211 -5 362z" />
    <glyph glyph-name="icongengduo" unicode="&#xe60c;" 
d="M805 398q-46 0 -84 22t-61 59l-258 -139q12 -31 12 -64q0 -71 -49.5 -121t-120.5 -50t-121 50t-50 120.5t50 120.5t121 50q80 0 132 -64l264 142q-6 24 -6 44q0 71 50 121t120.5 50t120.5 -50t50 -121t-50 -120.5t-120 -49.5zM243.5 398q-50.5 0 -86 -36t-35.5 -86.5
t35.5 -86t86 -35.5t86.5 35.5t36 86t-36 86.5t-86.5 36zM804.5 690q-50.5 0 -86 -35.5t-35.5 -86t35.5 -86.5t86 -36t86 36t35.5 86.5t-35.5 86t-86 35.5zM399 204l247 -138q18 39 54 63.5t80 24.5q61 0 103.5 -43t42.5 -103.5t-42.5 -103.5t-103 -43t-103.5 43t-43 103
q0 2 0.5 5.5t0.5 4.5l-265 143zM780 -97q43 0 74 30.5t31 74t-31 74t-74 30.5t-73.5 -30.5t-30.5 -74t30.5 -74t73.5 -30.5z" />
    <glyph glyph-name="cionjiantouzuo" unicode="&#xe60f;" 
d="M300 309l-0.5 -1t-0.5 -2q-7 -13 -4.5 -28t13.5 -26l344 -325q14 -13 33 -12.5t32.5 14.5t13 33.5t-14.5 32.5l-309 292l308 296q14 13 14 32.5t-13 33.5q-14 14 -34 14q-19 0 -32 -13l-341 -328l-0.5 -1t-1 -1.5l-1.5 -1.5t-6 -9v0zM300 309z" />
    <glyph glyph-name="fanhui" unicode="&#xe61b;" 
d="M628 606h-176v143l-387 -193l387 -193v143h191q226 0 226 -190q0 -197 -234 -197h-445v-100h450q319 0 319 287q0 300 -331 300v0v0zM628 606z" />
    <glyph glyph-name="zhijiaoyidterji" unicode="&#xe6fb;" horiz-adv-x="1025" 
d="M895 540q-7 98 -59.5 179.5t-138 128.5t-185 47t-184.5 -47t-138 -128.5t-60 -179.5q-55 -11 -92 -55t-37 -102v-64q0 -66 47 -112.5t113 -46.5h96v159v64v160h-62q12 122 103 205t214.5 83t215 -83t103.5 -205h-63v-160v-64v-159h63q-22 -100 -102 -165t-184 -65
q-32 0 -64 8v-60q31 -6 64 -6q128 0 226 82.5t120 207.5q57 10 95 54t38 103v64q0 58 -36.5 102t-92.5 55zM193 373v-43v-106h-48q-33 0 -56.5 31t-23.5 75v43q0 44 23.5 75t56.5 31h48v-106zM960 330q0 -44 -23.5 -75t-56.5 -31h-42h-6v106v43v106h48q33 0 56.5 -31
t23.5 -75v-43z" />
    <glyph glyph-name="suo" unicode="&#xe6ab;" 
d="M763 432v145q0 105 -73 180t-176 75t-176 -75t-73 -180v-145q-34 -10 -56 -39.5t-22 -66.5v-280q0 -47 32 -79.5t77 -32.5h436q45 0 77 32.5t32 79.5v280q0 37 -22 66.5t-56 39.5zM537 120v-47q0 -10 -7 -16.5t-16 -6.5t-16 6.5t-7 16.5v47q-20 7 -33 25.5t-13 41.5
q0 30 20 51t49 21t49.5 -21t20.5 -51q0 -23 -13.5 -41.5t-33.5 -25.5zM683 438h-338v139q0 71 49.5 122t119.5 51t119.5 -51t49.5 -122v-139z" />
    <glyph glyph-name="iconfonttianjia" unicode="&#xe61e;" 
d="M920 864h-816q-30 0 -51 -21t-21 -51v-816q0 -30 21 -51t51 -21h816q30 0 51 21t21 51v816q0 30 -21 51t-51 21zM976 -24q0 -23 -16.5 -39.5t-39.5 -16.5h-816q-23 0 -39.5 16.5t-16.5 39.5v816q0 23 16.5 39.5t39.5 16.5h816q23 0 39.5 -16.5t16.5 -39.5v-816zM736 384
h-224v224q0 8 -8 8t-8 -8v-224h-224q-8 0 -8 -8t8 -8h224v-224q0 -8 8 -8t8 8v224h224q8 0 8 8t-8 8z" />
    <glyph glyph-name="gengduo" unicode="&#xe6f3;" 
d="M512 834q-91 0 -174.5 -36t-143.5 -96t-96 -143.5t-36 -174.5t36 -174.5t96 -143.5t143.5 -96t174.5 -36t174.5 36t143.5 96t96 143.5t36 174.5t-36 174.5t-96 143.5t-143.5 96t-174.5 36zM801 95q-57 -57 -130 -88q-76 -32 -159 -32t-159 32q-73 31 -130 88t-88 130
q-32 76 -32 159t32 159q31 73 88 130t130 88q76 32 159 32t159 -32q73 -31 130 -88t88 -130q32 -76 32 -159t-32 -159q-31 -73 -88 -130zM532 629h-40v-225h-225v-40h225v-225h40v225h225v40h-225v225z" />
    <glyph glyph-name="guanbi1" unicode="&#xe61d;" 
d="M726 594l-172 -172l171 -172q11 -11 11 -27t-11 -27t-27 -11t-27 11l-172 172l-171 -172q-12 -11 -27.5 -11t-27 11t-11.5 27t11 27l172 172l-172 172q-12 11 -12 27t11.5 27.5t27.5 11.5t27 -12l172 -172l173 172q11 12 27 12t27 -11.5t11 -27.5t-11 -27z" />
    <glyph glyph-name="wode" unicode="&#xe681;" 
d="M814 128q-5 117 -89 198t-201.5 81t-202 -81t-88.5 -198h46q5 97 75.5 165t168.5 68t169 -68t75 -165h47zM512 -81v0q95 0 181 36.5t148.5 99t99 148.5t36.5 181t-36.5 181t-99 148.5t-148.5 99t-181 36.5t-181 -36.5t-148.5 -99t-99 -148.5t-36.5 -181t36.5 -181
t99 -148.5t148.5 -99t181 -36.5v0zM0 384q0 139 68.5 257t186.5 186.5t257 68.5t257 -68.5t186.5 -186.5t68.5 -257t-68.5 -257t-186.5 -186.5t-257 -68.5t-257 68.5t-186.5 186.5t-68.5 257zM512 361q77 0 131.5 54.5t54.5 131.5t-54.5 131.5t-131.5 54.5t-131.5 -54.5
t-54.5 -131.5t54.5 -131.5t131.5 -54.5v0zM512 407q-58 0 -99 41t-41 99t41 99t99 41t99 -41t41 -99t-41 -99t-99 -41v0z" />
    <glyph glyph-name="iconfonthuoche" unicode="&#xe67d;" 
d="M869 149v486q0 56 -39 95t-94 39h-447q-55 0 -94 -39t-39 -95v-486q0 -50 33 -87.5t83 -44.5l-117 -145h123l126 144h226l116 -144h121l-109 146q48 8 79.5 45t31.5 86zM296 89q-25 0 -42.5 18t-17.5 42.5t17.5 42t42.5 17.5t42.5 -17.5t17.5 -42t-17.5 -42.5t-42.5 -18z
M722.5 89q-24.5 0 -42.5 18t-18 42.5t18 42t42.5 17.5t42.5 -17.5t18 -42t-18 -42.5t-42.5 -18zM809 410q0 -28 -19.5 -47.5t-46.5 -19.5h-460q-28 0 -47.5 19.5t-19.5 47.5v147q0 27 19.5 46.5t47.5 19.5h460q27 0 46.5 -19.5t19.5 -46.5v-147v0zM430 802h164q19 0 32.5 14
t13.5 33.5t-13.5 33t-32.5 13.5h-164q-19 0 -32.5 -13.5t-13.5 -33t13.5 -33.5t32.5 -14z" />
    <glyph glyph-name="duobianxing" unicode="&#xe633;" 
d="M747 758q-9 16 -28 16h-413q-19 0 -28 -16l-207 -359q-10 -16 0 -32l207 -358q9 -16 28 -16h413q19 0 28 16l207 358q9 16 0 32zM944 373l-206 -359q-7 -10 -19 -10h-413q-13 0 -19 10l-207 359q-6 10 0 21l207 358q6 11 19 11h413q12 0 19 -11l206 -358q6 -11 0 -21z
" />
    <glyph glyph-name="huoche002" unicode="&#xe63c;" horiz-adv-x="1366" 
d="M1277 347h-403v213h261zM901 373h326l-106 160h-220v-160zM1044 547h28v-187h-28v187zM1246 172h101v37h-140zM1009 172h-173v37l218 -1zM1285 276h62v-38h-62v38zM240 1q-31 0 -53 22t-22 53.5t22 53.5t53 22t53.5 -22t22.5 -53.5t-22 -53.5t-54 -22zM240 129
q-22 0 -37 -15.5t-15 -37t15 -37t37 -15.5t37.5 15.5t15.5 37t-15.5 37t-37.5 15.5zM1127 1q-31 0 -53 22t-22 53.5t22 53.5t53 22t53.5 -22t22.5 -53.5t-22.5 -53.5t-53.5 -22zM1127 129q-21 0 -36.5 -15.5t-15.5 -37t15.5 -37t37 -15.5t37 15.5t15.5 37t-15.5 37
t-37.5 15.5zM562 130h269v-27h-269v27zM1371 103h-125l-2 11q-9 40 -41.5 66.5t-74.5 26.5q-41 0 -74 -26.5t-42 -66.5l-2 -11h-192v512h288l156 -244l109 -62v-206v0zM1266 130h77v164l-101 58l-151 236h-247v-458h145q13 45 52 74t87 29t86.5 -29t51.5 -74zM770 103h-412
l-2 11q-8 40 -41 66.5t-74 26.5q-42 0 -74.5 -26.5t-41.5 -66.5l-2 -11h-115v150h762v-150zM379 130h364v97h-459q35 -11 60 -37t35 -60zM34 130h67q11 34 36 60t59 37h-162v-97v0zM8 796v-543h27v516h708v-516h27v543h-762z" />
    <glyph glyph-name="fenlei" unicode="&#xe630;" 
d="M954 630q0 -8 -6.5 -14t-15.5 -6h-829q-9 0 -15.5 6t-6.5 14v1q0 8 6.5 14t15.5 6h829q9 0 15.5 -6t6.5 -14v-1v0zM954 395q0 -8 -6.5 -14t-15.5 -6h-829q-9 0 -15.5 6t-6.5 14v1q0 8 6.5 14t15.5 6h829q9 0 15.5 -6t6.5 -14v-1v0zM954 865q0 -8 -6.5 -14t-15.5 -6h-829
q-9 0 -15.5 6t-6.5 14v1q0 8 6.5 14t15.5 6h829q9 0 15.5 -6t6.5 -14v-1zM82 96q86 57 136 149l26 -16q-53 -96 -141 -157q-9 11 -21 24zM132 84h247q-2 -36 -3 -92q-2 -18 -2 -27q-3 -71 -70 -69h-60q0 12 -4 31h24q25 -2 37 -2q41 -3 42 43q4 58 4 89h-114
q-3 -127 -120 -175q-5 8 -17 22q-2 3 -3 4q108 35 110 149h-71v27v0zM293 237l28 12q41 -99 134 -148q-15 -17 -24 -28q-97 61 -138 164zM953 -86q-1 -3 -4 -9q-8 -12 -9 -18q-127 26 -170 98q-31 -74 -168 -101q-2 3 -5 9q-6 12 -10 17q133 20 159 85h-150v26h157
q3 14 3 29h29q-1 -15 -4 -29h160v-26h-150q45 -65 162 -81zM599 156h156v92h29v-92h154v-25h-154v-22l7 13q69 -23 158 -58l-14 -23q-92 38 -151 58v-35h-29v60q-57 -55 -150 -87q-8 12 -17 24q84 23 141 70h-130v25zM632 219l19 18q35 -23 64 -49l-18 -20q-10 8 -22 17
q-27 23 -43 34zM908 219q-32 -24 -71 -52l-17 21q25 17 69 50z" />
    <glyph glyph-name="shoucang" unicode="&#xe645;" 
d="M846 776h-659q-52 0 -88.5 -37t-36.5 -89v-532q0 -52 36.5 -89t88.5 -37h659q51 0 88 37t37 89v532q0 52 -37 89t-88 37zM454 729h172v-361l-78 47l-94 -62v376v0zM109 666q0 26 18.5 44.5t44.5 18.5h235v-173h-298v110zM924 102q0 -26 -18.5 -44.5t-44.5 -18.5h-689
q-26 0 -44.5 18.5t-18.5 44.5v407h298v-219q1 -2 3.5 -4.5t11 -3t16.5 7.5l110 63l94 -63q1 -2 4 -5t11 -3.5t16 8.5v439h188q26 0 44.5 -18.5t18.5 -44.5v-564v0zM289 447h-78q-10 0 -17 -7t-7 -17t7 -16.5t17 -6.5h78q10 0 17 6.5t7 16.5t-7 17t-17 7z" />
    <glyph glyph-name="iconfontwujiaoxing74" unicode="&#xe656;" 
d="M779 -91q-17 0 -34 8l-233 115l-236 -115q-17 -9 -38.5 -7.5t-37.5 13.5q-17 12 -24.5 31.5t-4.5 39.5l49 250l-186 171q-15 15 -20 35.5t1 39.5q7 20 22.5 33.5t36.5 16.5l257 47l115 232q10 18 27.5 29t38.5 11t38.5 -11t26.5 -30l116 -231l258 -46q20 -3 35.5 -16
t22.5 -33q6 -20 1 -40.5t-20 -34.5l-186 -173l47 -249q4 -21 -4 -40.5t-25 -31.5q-19 -14 -43 -14zM512 89l257 -126q12 -7 23 1t9 21l-52 277l206 192q9 9 5 22t-18 15l-284 50l-127 255q-5 11 -19 11t-20 -11l-126 -255l-284 -52q-14 -2 -18 -15t6 -22l205 -190l-54 -277
q-2 -13 9 -21t23 -2z" />
    <glyph glyph-name="tianjia2" unicode="&#xe6ae;" 
d="M511 836q-91 0 -174 -35.5t-143 -95.5t-95.5 -143t-35.5 -174.5t35.5 -174.5t95.5 -143t143 -95.5t174 -35.5t174 35.5t143.5 95.5t96 143t35.5 174.5t-35.5 174.5t-96 143t-143.5 95.5t-174 35.5zM696 376h-169v-187h-36v187h-170v30h170v170h36v-170h169v-30z" />
    <glyph glyph-name="001" unicode="&#xe646;" 
d="M362 756h-205q-39 0 -66.5 -27.5t-27.5 -66.5v-205q0 -39 27.5 -66.5t66.5 -27.5h205q39 0 66.5 27.5t27.5 66.5v205q0 39 -27.5 66.5t-66.5 27.5v0zM405 457q0 -18 -12.5 -30.5t-30.5 -12.5h-205q-18 0 -30.5 12.5t-12.5 30.5v205q0 18 12.5 30.5t30.5 12.5h205
q18 0 30.5 -12.5t12.5 -30.5v-205zM362 329h-205q-39 0 -66.5 -28t-27.5 -67v-205q0 -39 27.5 -66.5t66.5 -27.5h205q39 0 66.5 27.5t27.5 66.5v205q0 39 -27.5 67t-66.5 28v0zM405 29q0 -18 -12.5 -30.5t-30.5 -12.5h-205q-18 0 -30.5 12.5t-12.5 30.5v205q0 18 12.5 30.5
t30.5 12.5h205q18 0 30.5 -12.5t12.5 -30.5v-205zM933 660l-145 146q-27 27 -66 27t-67 -27l-145 -146q-28 -27 -28 -66t28 -67l145 -145q28 -27 67 -27t66 27l145 145q28 28 28 67t-28 66v0zM897 564l-145 -146q-12 -12 -30 -12t-31 12l-145 146q-12 12 -12 30t12 30
l145 145q13 13 31 13t30 -13l145 -145q13 -12 13 -30t-13 -30v0zM790 329h-205q-39 0 -66.5 -28t-27.5 -67v-205q0 -39 27.5 -66.5t66.5 -27.5h205q39 0 66.5 27.5t27.5 66.5v205q0 39 -27.5 67t-66.5 28v0zM833 29q0 -18 -12.5 -30.5t-30.5 -12.5h-205q-18 0 -30.5 12.5
t-12.5 30.5v205q0 18 12.5 30.5t30.5 12.5h205q18 0 30.5 -12.5t12.5 -30.5v-205z" />
    <glyph glyph-name="liwu1" unicode="&#xe75d;" 
d="M881 679h-32q24 42 21 79q-2 19 -12.5 38.5t-34.5 35.5q-23 14 -51 17.5t-60 -4.5q-17 -4 -35 -11.5t-36 -18t-36 -23.5t-34.5 -28t-32 -32t-29.5 -35q-40 54 -95.5 95t-107.5 53q-64 17 -110 -13q-43 -29 -47 -74q-1 -9 0 -18.5t3.5 -19.5t7 -20t10.5 -21h-32
q-37 0 -63 -26t-26 -63v-114q0 -29 17.5 -52.5t44.5 -32.5q-5 -14 -5 -30v-343q0 -37 26 -63t63 -26h629q18 0 34.5 7t28.5 19t19 28.5t7 34.5v343q0 16 -6 30q10 3 18 8t15 11t12.5 13.5t9.5 16t6 17.5t2 19v114q0 24 -12 44.5t-32.5 32.5t-44.5 12zM836 -34h-291v431h291
q7 0 13.5 -4t10 -10.5t3.5 -14.5v-374q0 -12 -8 -20t-19 -8zM548 680q41 47 91 82t94 46q15 4 28.5 4.5t24 -2t20.5 -8.5q22 -15 23 -33q3 -20 -13 -45.5t-33 -43.5h-235zM924 605v-124q0 -6 -2.5 -11.5t-6 -9t-9 -6t-11.5 -2.5h-353v181h353q12 0 20.5 -8t8.5 -20zM469 397
v-432h-286q-12 0 -20 8.5t-8 20.5v375q0 7 3.5 14t10 10.5t14.5 3.5h286zM192 765q0 8 4.5 16t17.5 16q26 17 71 6q16 -5 34 -12.5t37 -19.5t37 -26t36 -30.5t34 -35.5h-228q-15 17 -30 41.5t-13 44.5zM93 606q0 12 8.5 20t20.5 8h352v-183h-352q-5 0 -9 2t-8 4.5t-6 6t-4 8
t-2 8.5v126z" />
    <glyph glyph-name="iconfonthuoche1" unicode="&#xe61f;" 
d="M574 109h-224v18q0 35 -25 60t-60 25t-60 -25t-25 -60v-18h-121q-24 0 -41.5 17t-17.5 42v535q0 24 17.5 41.5t41.5 17.5h515q24 0 41.5 -17.5t17.5 -41.5v-535q0 -25 -17.5 -42t-41.5 -17v0zM384 145h190q9 0 16 6.5t7 16.5v535q0 10 -7 16.5t-16 6.5h-515
q-10 0 -16.5 -6.5t-6.5 -16.5v-535q0 -10 6.5 -16.5t16.5 -6.5h86q7 43 41 72.5t79 29.5t79 -29.5t40 -72.5v0zM965 109h-80v18q0 35 -25 60t-60 25t-60 -25t-25 -60v-18h-59q-24 0 -41.5 17t-17.5 42v391q0 24 17.5 41.5t41.5 17.5h175q20 0 54 -33q28 -26 60 -66
q33 -40 54 -74q25 -41 25 -61v-216q0 -25 -17.5 -42t-41.5 -17v0zM920 145h45q10 0 16.5 6.5t6.5 16.5v216q0 10 -18.5 40.5t-48.5 68.5q-30 36 -56 62q-25 24 -35 27h-174q-10 0 -16.5 -6.5t-6.5 -16.5v-391q0 -10 6.5 -16.5t16.5 -6.5h25q6 43 40 72.5t79 29.5t79 -29.5
t41 -72.5v0zM1024 335h-244q-25 0 -42 17.5t-17 41.5v83q0 24 17 41.5t42 17.5h152l5 -7q87 -104 87 -145v-49v0zM780 500q-10 0 -17 -7t-7 -16v-83q0 -9 7 -16t17 -7h208v13q0 11 -22 47q-21 32 -51 69h-135v0zM800 6q-50 0 -85.5 35.5t-35.5 85.5t35.5 85t85.5 35
t85.5 -35t35.5 -85t-35.5 -85.5t-85.5 -35.5v0zM800 212q-35 0 -60 -25t-25 -60t25 -60t60 -25t60 25t25 60t-25 60t-60 25v0zM265 6q-50 0 -85.5 35.5t-35.5 85.5t35.5 85t85.5 35t85.5 -35t35.5 -85t-35.5 -85.5t-85.5 -35.5v0zM265 212q-35 0 -60 -25t-25 -60t25 -60
t60 -25t60 25t25 60t-25 60t-60 25v0zM265 212z" />
    <glyph glyph-name="xwmfenlei" unicode="&#xe631;" 
d="M462 20h-211q-36 0 -61 25t-25 61v582q0 35 25 60.5t61 25.5h457q35 0 60.5 -25.5t25.5 -60.5v-278q0 -11 -8 -18.5t-18.5 -7.5t-18.5 7.5t-8 18.5v278q0 14 -9.5 23.5t-23.5 9.5h-457q-14 0 -24 -9.5t-10 -23.5v-582q0 -14 10 -24t24 -10h211q11 0 19 -7.5t8 -18.5
t-8 -18.5t-19 -7.5zM851 39l-50 50q33 44 33 100q0 68 -48 116.5t-116.5 48.5t-116.5 -48.5t-48 -117t48 -117t116 -48.5q52 0 95 30l50 -51q8 -8 18.5 -8t18.5 8t8 18.5t-8 18.5zM557 188.5q0 46.5 33 80t79.5 33.5t79.5 -33.5t33 -80t-33 -80t-79.5 -33.5t-79.5 33.5
t-33 80zM637 556h-346q-11 0 -19 7.5t-8 18.5t8 18.5t19 7.5h346q11 0 19 -7.5t8 -18.5t-8 -18.5t-19 -7.5zM482 366h-189q-11 0 -18.5 8t-7.5 18.5t7.5 18.5t18.5 8h189q11 0 18.5 -8t7.5 -18.5t-7.5 -18.5t-18.5 -8zM400 177h-107q-11 0 -18.5 7.5t-7.5 18.5t7.5 18.5
t18.5 7.5h107q11 0 18.5 -7.5t7.5 -18.5t-7.5 -18.5t-18.5 -7.5z" />
    <glyph glyph-name="iconfontwujiaoxing1" unicode="&#xe658;" 
d="M1021 510q-13 42 -73 63h-1l-216 59q-30 46 -140 214l-0.5 0.5l-0.5 0.5q-35 49 -79 49q-45 0 -78 -51l-120 -196q-36 -10 -161 -49l-79 -24q-55 -17 -69 -57t20 -97q1 -2 2 -3q62 -79 141 -179q-3 -136 -7 -258q-5 -61 18 -89q18 -21 50 -21q23 0 61 14l207 84
q100 -37 236 -88q24 -7 43 -7q13 0 25 3.5t25.5 13.5t22 32t10.5 54v3q-4 65 -13 230v1l153 206q35 51 23 92v0zM959 449l-158 -213q-6 -8 -5 -17v-11q10 -165 13 -229q-1 -18 -4.5 -30t-9.5 -16.5t-10 -5.5t-10 -1q-12 0 -28 5q-160 60 -243 91q-9 3 -17 0l-215 -88
q-29 -11 -44 -11q-10 0 -14 5q-9 11 -6 50v2q4 137 8 268q0 10 -6 18q-67 85 -146 185q-20 34 -14 50q5 16 37 26l78 24q113 34 170 52q9 2 14 10l124 203q19 29 38 29q20 0 40 -29q103 -157 146 -221q5 -8 13 -11l224 -60q36 -13 41 -30q5 -16 -16 -45v0zM959 449z" />
    <glyph glyph-name="rili" unicode="&#xe6a4;" 
d="M256 329h110v-110h-110v110zM256 165h110v-110h-110v110zM475 165h110v-110h-110v110zM475 329h110v-110h-110v110zM475 494h110v-110h-110v110zM695 329h110v-110h-110v110zM695 494h110v-110h-110v110zM292.5 695q22.5 0 38.5 16t16 39v91q0 23 -16 39t-38.5 16
t-38.5 -16t-16 -39v-91q0 -23 16 -39t38.5 -16zM969 750h-128q0 -46 -32 -78t-77.5 -32t-77.5 32t-32 78h-220q0 -46 -32 -78t-77.5 -32t-77.5 32t-32 78h-128q-15 0 -26 -11t-11 -26v-804q0 -16 11 -26.5t26 -10.5h914q15 0 26 10.5t11 26.5v804q0 15 -11 26t-26 11z
M914 -37h-804v622h804v-622zM731.5 695q22.5 0 38.5 16t16 39v91q0 23 -16 39t-38.5 16t-38.5 -16t-16 -39v-91q0 -23 16 -39t38.5 -16z" />
    <glyph glyph-name="iconfontlingdang2" unicode="&#xe63b;" 
d="M851 77h-681q-13 0 -18 12.5t6 22.5q29 25 49.5 76t24.5 106v111q0 143 68 220q72 80 211.5 80t211.5 -80q69 -77 69 -220v-111q3 -56 23 -106.5t49 -75.5q10 -9 5.5 -22t-18.5 -13zM214 116h593q-21 30 -39 97t-16 81v111q0 130 -60.5 195t-180.5 65q-240 0 -240 -260
v-113q-3 -61 -26 -118q-12 -31 -31 -58zM521 -15q-33 0 -56.5 23.5t-23.5 56.5q0 14 5 27q3 8 10.5 11.5t15 0.5t11 -10.5t1.5 -14.5q-3 -7 -3 -14q0 -16 12 -28t28.5 -12t28 12t11.5 28q0 7 -2 14q-3 7 0.5 14.5t11.5 10.5t15.5 -0.5t10.5 -11.5q4 -13 4 -27
q0 -33 -23.5 -56.5t-56.5 -23.5zM552 674q-8 0 -14 5.5t-6 14.5v31q0 9 -6 14.5t-14.5 5.5t-14 -5.5t-5.5 -14.5v-31q0 -9 -6 -14.5t-14.5 -5.5t-14.5 5.5t-6 14.5v31q0 25 18 42.5t43 17.5t43 -17.5t18 -42.5v-31q0 -9 -6.5 -14.5t-14.5 -5.5z" />
    <glyph glyph-name="money" unicode="&#xe643;" horiz-adv-x="1167" 
d="M567 430l-55 -107l-55 107h-46l68 -123h-46v-21h59v-1v-30h-59v-21h59v-54h41v54h59v21h-59v30v1h59v21h-47l69 123h-47zM735 475.5q0 -7.5 5.5 -12.5t12.5 -5q57 0 110 -5h2q7 0 12 5t6 12q0 7 -4.5 13t-12.5 7q-56 4 -113 4q-7 0 -12.5 -5.5t-5.5 -13zM285 175
q-56 0 -110 4q-8 1 -13.5 -4t-6 -12.5t4 -13t12.5 -6.5q57 -5 113 -5q7 0 12.5 5.5t5.5 13t-5.5 13t-12.5 5.5v0zM1008 620q-77 10 -158.5 10t-129 -4.5t-131.5 -13.5q-83 -10 -130.5 -14t-128.5 -4t-159 10q-7 0 -13 -4.5t-7 -12t3.5 -13.5t12.5 -7q79 -10 162 -10
t131.5 4.5t132.5 14.5q82 9 127.5 13t120.5 4.5t147 -8.5v-443q0 -7 5 -12.5t12.5 -5.5t13 5.5t5.5 12.5v460q0 6 -4.5 11.5t-11.5 6.5zM936 555q-92 12 -185 12q-83 0 -238 -14q-151 -14 -234 -14q-91 0 -180 11q-8 1 -14 -4q-7 -6 -7 -14v-437q0 -6 4.5 -11.5t11.5 -6.5
q92 -11 184 -11q84 0 239 14q151 14 234 14q91 0 180 -12q8 -1 14.5 4.5t6.5 13.5v437q0 7 -4.5 12t-11.5 6zM915 121q-81 9 -164 9q-85 0 -238 -14q-151 -14 -235 -14q-82 0 -163 10v400q81 -10 164 -10t238 14q151 14 235 14q82 0 163 -9v-400v0zM1081 692
q-77 10 -158.5 10t-129 -4.5t-131.5 -13.5q-83 -10 -130.5 -14t-128.5 -4t-159 10q-7 1 -13 -4t-7 -12.5t3.5 -13t12.5 -6.5q79 -10 162 -10t131 4t133 14q82 9 127.5 13t120.5 4.5t147 -8.5v-442q0 -8 5 -13t12.5 -5t13 5t5.5 13v459q0 6 -4.5 11.5t-11.5 6.5z" />
    <glyph glyph-name="fenlei1" unicode="&#xe651;" 
d="M456 375q28 -54 74 -92t99.5 -55.5t113 -13.5t113.5 31.5t92.5 73.5t55.5 99.5t13 113.5t-31.5 113.5t-73.5 92t-99.5 56t-113.5 13t-113.5 -32t-92 -73.5t-55.5 -99.5t-13 -113t31 -113.5v0zM609 729q91 46 187.5 14.5t143 -122t15 -187t-122 -142.5t-187 -15
t-143 121.5t-15 187t121.5 143.5v0zM609 729zM1018 18l-84 165q-7 13 -21.5 18t-27.5 -2l-9 -5q-13 -7 -18 -21.5t2 -27.5l84 -164q7 -14 21.5 -18.5t28.5 2.5l8 4q14 7 18.5 21.5t-2.5 27.5v0zM1018 18zM31 748h401q12 0 20.5 8.5t8.5 20.5t-8.5 20.5t-20.5 8.5h-401
q-12 0 -20.5 -8.5t-8.5 -20.5t8.5 -20.5t20.5 -8.5v0zM31 748zM31 486h297q12 0 20.5 8.5t8.5 20.5t-8.5 20.5t-20.5 8.5h-297q-12 0 -20.5 -8.5t-8.5 -20.5t8.5 -20.5t20.5 -8.5v0zM31 486zM31 223h383q12 0 20.5 9t8.5 21t-8.5 20.5t-20.5 8.5h-383q-12 0 -20.5 -8.5
t-8.5 -20.5t8.5 -21t20.5 -9v0zM31 223zM819 17h-790q-12 0 -19.5 -7.5t-7.5 -19t7.5 -19t19.5 -7.5h790q11 0 19 7.5t8 19t-8 19t-19 7.5v0zM819 17z" />
    <glyph glyph-name="weixin" unicode="&#xe621;" 
d="M390 265q-17 -10 -30.5 -11.5t-20.5 3.5t-12 10.5t-6 11.5l-1 5l-77 178q-19 56 4 51q9 -2 22 -12q47 -36 83 -58q16 -9 35 -10.5t30 1.5l12 3l502 231q-71 88 -181.5 139t-237.5 51q-104 0 -199 -35.5t-163.5 -95.5t-109 -142.5t-40.5 -173.5q0 -104 52 -195.5
t142 -153.5l-21 -122q-1 -2 -1 -4t-0.5 -7.5t2 -8t8 -4t16.5 4.5q29 13 125 76q91 -32 189 -32q104 0 198.5 35.5t163.5 95t109.5 142.5t40.5 173q0 105 -54 199q-528 -316 -580 -345v0v0zM390 265z" />
    <glyph glyph-name="diannao" unicode="&#xe62f;" 
d="M909 781h-791q-22 0 -36.5 -14.5t-14.5 -35.5v-536q0 -21 14.5 -35.5t36.5 -14.5h363v-66h64v66h364q21 0 36 14.5t15 35.5v536q0 21 -15 35.5t-36 14.5v0v0zM906 199h-786v137h786v-137v0zM120 389v339h786v-339h-786v0zM480 299h66v-64h-66v64v0zM387 80
q-14 0 -23.5 -9t-9.5 -22.5t9 -22.5t23 -9h255q13 0 22.5 9t9.5 22.5t-10 22.5t-23 9h-253v0zM387 80z" />
    <glyph glyph-name="tuikuan" unicode="&#xe648;" 
d="M915 721q-13 0 -22 -9t-9 -22v-82q-28 45 -65 83q-60 60 -138 93q-81 34 -169 34t-169 -34q-78 -33 -138 -93t-93 -138q-34 -80 -34 -168v-307q0 -13 9 -22t22 -9t22 9t9 22v82q28 -45 65 -83q60 -60 138 -93q81 -34 169 -34t169 34q78 33 138 93t93 138q34 81 34 169
v306q0 13 -9 22t-22 9zM884 384q0 -101 -50 -186.5t-135.5 -135.5t-186.5 -50t-186.5 50t-135.5 135.5t-50 186.5t50 186.5t135.5 135.5t186.5 50t186.5 -50t135.5 -135.5t50 -186.5zM707 218v0q9 10 9 22.5t-10 21.5l-53 51q32 26 49 48q8 10 6.5 23t-11.5 21q-4 3 -8 4
q8 13 8 28v116q0 21 -15 36t-36 15h-167q-21 0 -36 -15t-15 -36v-305q-8 6 -14 14v147q0 16 -9.5 29.5t-24.5 19.5l-1 1h5q6 0 11 2q12 4 17.5 16t0.5 24q-18 47 -51 93q-9 14 -25 14q-10 0 -18 -6q-11 -7 -13 -20t5 -23q29 -41 44 -81q6 -14 21 -18h-2q-6 1 -12 1h-58
q-13 0 -22 -9t-9 -22t9 -22t22 -9h47v-148q-4 -4 -9 -8v0q-23 -18 -51 -24q-13 -3 -20 -14t-4 -24q3 -10 11.5 -17t19.5 -7q3 0 7 1q41 9 75 35v0l1 1q4 3 7 6q55 -45 125 -45h194q13 0 22 9.5t9 22t-9 22t-22 9.5zM491 526v15h144v-15h-144zM491 449v15h144v-15h-144z
M608 356l-32 30h65q-16 -16 -33 -30zM566 260q10 8 11 21t-8 23q-9 11 -24 11q-11 0 -20 -8q-15 -13 -34 -24v98l93 -88v-1v0l78 -74h-149h-11q35 17 64 42z" />
    <glyph glyph-name="dingwei" unicode="&#xe634;" 
d="M520 -96q-23 0 -85.5 72.5t-127.5 169t-115 199.5t-50 156q0 97 50.5 179.5t137.5 130.5t189.5 48t190 -48t138 -130.5t50.5 -179.5q0 -52 -50.5 -155t-115.5 -199.5t-127.5 -169.5t-84.5 -73zM519.5 800q-130.5 0 -222.5 -87.5t-92 -211.5q0 -44 42 -131.5t95.5 -169.5
t106 -144.5t71.5 -62.5t71 62.5t106 145t96 169.5t42 131q0 124 -92.5 211.5t-223 87.5zM520 352q-65 0 -111.5 43.5t-46.5 105.5t46.5 105.5t111.5 43.5t111 -43.5t46 -105.5t-46 -105.5t-111 -43.5zM520 591q-39 0 -67 -26.5t-28 -63.5t28 -63.5t67 -26.5t66.5 26.5
t27.5 63.5t-27.5 63.5t-66.5 26.5z" />
    <glyph glyph-name="daifukuan" unicode="&#xe649;" horiz-adv-x="1039" 
d="M899 256h-774q-7 0 -12.5 -5t-5.5 -12v-29q0 -7 5.5 -12.5t12.5 -5.5h774q7 0 12.5 5.5t5.5 12.5v29q0 7 -5.5 12t-12.5 5zM953 725h-882q-29 0 -49.5 -20.5t-20.5 -50.5v-540q0 -30 20.5 -50.5t49.5 -20.5h882q29 0 49.5 20.5t20.5 50.5v540q0 30 -20.5 50.5t-49.5 20.5
zM959 142q0 -14 -10 -24.5t-25 -10.5h-824q-15 0 -25 10.5t-10 24.5v484q0 14 10 24.5t25 10.5h824q15 0 25 -10.5t10 -24.5v-484zM881 512h-99q-15 0 -25.5 -10.5t-10.5 -24.5v-58q0 -14 10.5 -24.5t25.5 -10.5h99q15 0 25.5 10.5t10.5 24.5v58q0 14 -10.5 24.5t-25.5 10.5
z" />
    <glyph glyph-name="jiantou" unicode="&#xe601;" 
d="M717 -26h-103l-358 410l358 410h103l-359 -410z" />
    <glyph glyph-name="shouye" unicode="&#xe60a;" 
d="M690 -33h16q47 2 51 3q38 6 66.5 33t34.5 65q1 11 1 20v210v204q0 5 -4 9l-339 339l-3 5l-5 -5l-338 -338q-5 -5 -5 -12v-410q-1 -48 31 -82t78 -40q9 -1 20 -1h254q46 -1 77 -38q8 -9 18 -28q4 -8 1.5 -15.5t-9.5 -11.5q-16 -8 -26 8q-13 21 -16 24q-20 22 -50 22h-250
q-60 0 -105 34q-50 39 -60 100q-2 13 -2 28v371v7l-5 -5l-81 -81q-9 -9 -19 -8q-11 2 -15 12t2 19l5 5l474 474q20 20 41 7q4 -2 10 -8q99 -98 344 -344q107 -107 130 -129q8 -8 8 -16q0 -13 -11 -18q-11 -6 -21 2q-1 1 -4 5q-51 51 -81 80l-3 4h-2v-6v-372q0 -50 -26 -88
q-28 -42 -77 -62q-30 -11 -66 -11h-25.5h-24.5t-12 1q-15 3 -16 18v6v270q0 50 -32 87q-32 38 -82 38t-82 -38q-32 -37 -32 -88v-199q0 -5 -1 -8q-3 -17 -20 -16q-7 1 -12 6t-6 12v5v200q0 60 32 102q57 74 144 60q67 -10 106 -72q24 -39 24 -91v-247v-7z" />
    <glyph glyph-name="shopcar1" unicode="&#xe684;" 
d="M128 770h336v-96h-336v96zM224 625l97 -371q5 -23 21.5 -39t39.5 -19l1 -1h351l1 1q26 4 44 22.5t20 43.5l97 363h-672zM416 530q20 0 34 -14t14 -33.5t-14 -33.5t-34 -14t-34 14t-14 33.5t14 33.5t34 14zM417.5 288q-19.5 0 -33.5 14t-14 34t14 34t33.5 14t34 -14
t14.5 -34t-14.5 -34t-34 -14zM559 533q20 0 34 -14t14 -34t-14 -34t-34 -14t-34 14t-14 34t14 34t34 14zM561 291q-20 0 -34.5 14t-14.5 34.5t14.5 34.5t34.5 14t34 -14t14 -34.5t-14 -34.5t-34 -14zM701.5 290q-20.5 0 -35.5 14.5t-15 35t15 35.5t35.5 15t35 -15
t14.5 -35.5t-14.5 -35t-35 -14.5zM704 434q-20 0 -34 14t-14 34t14 34t34 14t34.5 -14t14.5 -34t-14.5 -34t-34.5 -14zM396.5 149q31.5 0 53.5 -22t22 -53.5t-22 -54t-53.5 -22.5t-54 22.5t-22.5 54t22.5 53.5t54 22zM728 149q30 0 51 -21t21 -50.5t-21 -51t-51 -21.5
t-51 21.5t-21 51t21 50.5t51 21z" />
    <glyph glyph-name="dingdan" unicode="&#xe632;" 
d="M300 754v-43h-6q-44 -1 -47 -1q-29 -3 -49.5 -25t-22.5 -52v-17v-246.5v-261.5q0 -29 9 -49q31 -62 98 -62h457q36 0 63.5 19.5t38.5 52.5q5 16 5 36q1 166 1 519q0 30 -15 52t-42 30q-10 4 -29 5h-34h-6v41q22 1 42 1t40.5 -7t37.5 -20q43 -35 47 -89v-28q1 -205 0 -502
q0 -71 -51 -116q-41 -36 -98 -36q-369 0 -457 1q-95 0 -137 88q-12 26 -12 61v520q0 74 63 111q22 13 42 15q5 0 62 3v0zM300 754zM395 811h232v-38h-97v-40h78v-38h-194v38h77v39h-96v39v0zM395 811zM311 506q0 28 1 36q0 1 3 2h4h384h7v-38h-399v0zM311 506zM312 373v37
h398v-37h-398v0zM312 373zM710 277v-38h-398v38h398v0zM710 277z" />
    <glyph glyph-name="jifen" unicode="&#xe64a;" 
d="M512.5 804q-115.5 0 -213.5 -29.5t-154.5 -80t-56.5 -110.5t56.5 -110.5t154.5 -80t213.5 -29.5t213.5 29.5t154.5 80t56.5 110.5t-56.5 110.5t-154.5 80t-213.5 29.5zM788 476q-113 -58 -275.5 -58t-275.5 58q-46 24 -70.5 52t-24.5 56t24.5 56t70.5 52q113 58 275.5 58
t275.5 -58q46 -24 70.5 -52t24.5 -56t-24.5 -56t-70.5 -52zM512.5 -43q-114.5 0 -212 29t-154 79t-56.5 109q0 7 1 12q25 -8 51 -15q2 -67 110 -114t261 -47t261 48q53 23 81 53t28 63v1q25 7 50 16q2 -8 2 -17q0 -59 -56.5 -109t-154 -79t-212 -29zM512.5 162
q-114.5 0 -212 29t-154 79t-56.5 109q0 7 1 12q22 -7 51 -14q2 -68 110 -115t261 -47t261 48q53 23 81 53t28 63v1q27 8 50 16q2 -8 2 -17q0 -59 -56.5 -109t-154 -79t-212 -29z" />
    <glyph glyph-name="iconfontyemian" unicode="&#xe653;" 
d="M743 143l-154 -134v134h154v0zM86 802h697v-581h-232q-16 0 -27.5 -11.5t-11.5 -27.5v-232h-426v852v0zM822 880h-775q-16 0 -27.5 -11.5t-11.5 -27.5v-930q0 -16 11.5 -27.5t27.5 -11.5h504l310 271v698q0 16 -11.5 27.5t-27.5 11.5v0v0zM822 880z" />
    <glyph glyph-name="shouji" unicode="&#xe64b;" 
d="M702 -44h-372q-51 0 -87 32t-36 76v644q0 44 36 75.5t87 31.5h372q51 0 87 -31.5t36 -75.5v-644q0 -44 -36 -76t-87 -32zM335 772q-35 0 -59.5 -21.5t-24.5 -51.5v-626q0 -30 24.5 -52t59.5 -22h362q34 0 59 22t25 52v626q0 30 -25 51.5t-59 21.5h-362zM516 58
q-33 0 -56.5 20.5t-23.5 49t23.5 49t56.5 20.5t56 -20.5t23 -49t-23 -49t-56 -20.5zM515.5 165q-17.5 0 -30 -11t-12.5 -26.5t12.5 -26.5t30 -11t30 11t12.5 26.5t-12.5 26.5t-30 11zM617 689h-203q-7 0 -11.5 6.5t-4.5 15.5t4.5 15t11.5 6h203q7 0 11.5 -6t4.5 -15
t-4.5 -15.5t-11.5 -6.5z" />
    <glyph glyph-name="tianjia" unicode="&#xe623;" 
d="M1024 410h-485v485h-54v-485h-485v-53h485v-485h54v485h485v53z" />
    <glyph glyph-name="fenlei2" unicode="&#xe62b;" 
d="M320 741q36 0 61.5 -25.5t25.5 -61.5v-111q0 -36 -25.5 -62t-61.5 -26h-111q-36 0 -61.5 26t-25.5 62v111q0 36 25.5 61.5t61.5 25.5h111zM320 796h-111q-59 0 -100.5 -42t-41.5 -100v-111q0 -59 41.5 -100.5t100.5 -41.5h111q58 0 100 41.5t42 100.5v111q0 58 -42 100
t-100 42v0v0zM320 796zM320 277q36 0 61.5 -26t25.5 -62v-110q0 -36 -25.5 -62t-61.5 -26h-111q-36 0 -61.5 26t-25.5 62v110q0 36 25.5 62t61.5 26h111zM320 332h-111q-59 0 -100.5 -42t-41.5 -101v-110q0 -59 41.5 -101t100.5 -42h111q58 0 100 42t42 101v110
q0 59 -42 101t-100 42v0v0zM320 332zM771 277q36 0 61.5 -26t25.5 -62v-110q0 -36 -25.5 -62t-61.5 -26h-111q-36 0 -61.5 26t-25.5 62v110q0 36 25.5 62t61.5 26h111zM771 332h-111q-58 0 -100 -42t-42 -101v-110q0 -59 42 -101t100 -42h111q59 0 100.5 42t41.5 101v110
q0 59 -41.5 101t-100.5 42v0v0zM771 332zM736.5 777q36.5 0 62.5 -26l78 -78q25 -25 25 -61.5t-25 -62.5l-78 -78q-26 -25 -62.5 -25t-61.5 25l-78 78q-26 26 -26 62.5t26 61.5l78 78q25 26 61.5 26zM737 832q-59 0 -101 -42l-78 -78q-42 -42 -42 -101t42 -101l78 -78
q42 -41 101 -41t101 41l78 78q41 42 41 101t-41 101l-78 78q-42 42 -101 42v0v0zM737 832z" />
    <glyph glyph-name="daifahuo" unicode="&#xe64d;" 
d="M256 311h-73q-15 0 -26 11t-11 25.5t11 25.5t26 11h71q14 0 25 -11t11 -26q2 -14 -8.5 -25t-25.5 -11v0v0zM936 750h-848q-37 0 -62.5 -25.5t-25.5 -62.5v-176v-9v-525q0 -32 24 -56t56 -24h861q33 0 57 24t24 56v522v188q1 36 -24 62t-62 26v0v0zM951 662v-149h-256v164
h239q7 0 12 -4.5t5 -10.5v0v0zM436 677h186v-412l-81 31q-15 4 -27 0l-75 -31v412h-3v0zM73 662q0 5 4.5 10t10.5 5h275v-166h-290v151v0v0zM944 -55h-864q-7 0 -7 7v488h290v-227q0 -22 17 -29q11 -7 20 -7q10 0 14 2l115 47l117 -47q18 -7 34 5q17 13 17 29v227h254v-488
q0 -7 -7 -7v0v0zM944 -55z" />
    <glyph glyph-name="shou" unicode="&#xe62c;" 
d="M893 492v0q-14 10 -31 6.5t-27 -18.5l-73 -173l-44 1l3 8h-4l-1 443q0 18 -12 30.5t-30 12.5v0q-17 0 -29 -12.5t-12 -30.5v-443h-46v0h-45v83q0 18 -12.5 31t-29.5 13v0q-17 0 -29.5 -13t-12.5 -31v-83h-45v0h-45l-1 84q0 17 -12 30t-30 13v0q-17 0 -29 -13t-12 -30v-84
h-46v0h-45v269q0 17 -12.5 30t-29.5 13v0q-17 0 -29.5 -13t-12.5 -30v-324h-1h1q7 -96 63 -174.5t140 -115.5q23 -5 51 -5h150q28 0 53 6q39 17 72 44l0.5 0.5l0.5 0.5l1 1q83 68 113 173v1v1v0l152 239q9 15 6 32.5t-18 27.5zM919 531h-1q-30 21 -65 13.5t-55 -38.5
l-36 -89v342q0 37 -25.5 63.5t-61.5 26.5h-1q-36 0 -61.5 -26.5t-25.5 -63.5v-443v84q0 37 -25.5 63t-61.5 26h-1q-35 0 -60.5 -26t-25.5 -63v0q0 37 -25.5 63t-61.5 26h-1q-35 0 -60 -24.5t-27 -59.5v180q0 37 -25.5 63.5t-61.5 26.5h-1q-36 0 -61 -27t-22 -64v-324v0
q7 -103 61.5 -188.5t140.5 -131.5q10 -7 21 -11q25 -10 51 -10h18h86h91q22 0 42 7q18 6 35 17q66 37 114 97.5t69 138.5l0.5 0.5l0.5 0.5h-1l147 226q20 31 13 67.5t-37 57.5zM905 432l-152 -239v0v-1v-1q-30 -105 -113 -173l-1 -1l-0.5 -0.5l-0.5 -0.5q-33 -27 -72 -44
q-25 -6 -53 -6h-150q-29 0 -51 4q-84 38 -140 116.5t-63 174.5h-1h1v323q0 18 12.5 31t29.5 13v0q17 0 29.5 -13t12.5 -31v-268h45v0h46v83q0 18 12 31t30 13v0q17 0 29.5 -13t12.5 -31v-84h45v0h45v84q0 18 12.5 30.5t29.5 12.5v0q17 0 29.5 -12.5t12.5 -30.5v-84h46v0h45
v443q0 18 12 31t30 13v0q17 0 29.5 -13t12.5 -31v-443h5l-3 -7l44 -1l72 173q10 15 27 18.5t32 -6.5v0q14 -10 17 -27.5t-6 -32.5z" />
    <glyph glyph-name="yinhangka" unicode="&#xe63e;" 
d="M784 533zM956 190zM683 468zM860 441zM178 265q-6 0 -11 3.5t-5 8.5v25q0 5 5 8.5t11 3.5h267q6 0 11 -3.5t5 -8.5v-25q0 -5 -5 -8.5t-11 -3.5h-267zM178 363q-6 0 -11 3.5t-5 9.5v24q0 5 5 9t11 4h513q7 0 11.5 -4t4.5 -9v-24q0 -6 -4.5 -9.5t-11.5 -3.5h-513zM959 511
h-894v-349q0 -41 29 -70t70 -29h695q41 0 70.5 29t29.5 70v349zM859 707h-695q-41 0 -70 -29t-29 -70v-10h894v10q0 41 -29.5 70t-70.5 29zM65 598zM65 511zM65 598zM959 598z" />
    <glyph glyph-name="iconfonttouzi" unicode="&#xe870;" 
d="M634 -18h-512q-12 0 -12 8v23q0 8 12 8h484l28 -39v0zM236 59q0 -9 -13 -9h-100q-13 0 -13 9v160q0 10 13 10h100q13 0 13 -10v-160v0zM397 64q0 -6 -4 -10.5t-10 -4.5h-99q-6 0 -9.5 4.5t-3.5 10.5v246q0 6 3.5 10t9.5 4h99q6 0 10 -4t4 -10v-246v0zM567 62
q0 -13 -13 -13h-100q-13 0 -13 13v333q0 13 13 13h100q13 0 13 -13v-333v0zM610 169v426q0 8 2 11.5t4 4t7 0.5h99q5 0 7.5 -0.5t4.5 -4t2 -11.5q1 -321 0 -333q-30 -1 -54 -11t-37 -23t-21.5 -27.5t-11 -22.5t-2.5 -9v0zM679 728l-84 103l-95 -103h73q-5 -20 -11.5 -42
t-23.5 -56.5t-38.5 -65.5t-58 -65.5t-80.5 -61t-107.5 -47t-136.5 -27.5q5 -1 14.5 -1.5t38.5 0t58 4t69 14t75.5 26.5t74.5 44.5t69 65.5t54.5 91.5t35.5 120.5h73v0zM758 248q-64 0 -109.5 -45.5t-45.5 -110t45.5 -110t110 -45.5t110 45.5t45.5 110t-45.5 110t-110.5 45.5
v0zM811 97v-18h-37v-17h37v-18h-37v-40h-34v40h-36v18h36v17h-36v18h28l-38 72h38l16 -41q2 -5 10 -27h1l3.5 11t6.5 17l16 40h38l-40 -72h28v0zM811 97z" />
    <glyph glyph-name="gengduo1" unicode="&#xe600;" 
d="M637 383q0 -26 18.5 -44t44.5 -18t44 18t18 44t-18 44.5t-44 18.5t-44.5 -18.5t-18.5 -44.5v0zM637 383zM450 383q0 -26 18.5 -44t44.5 -18t44 18t18 44t-18 44.5t-44 18.5t-44.5 -18.5t-18.5 -44.5v0zM450 383zM263 383q0 -26 18.5 -44t44.5 -18t44 18t18 44t-18 44.5
t-44 18.5t-44.5 -18.5t-18.5 -44.5v0zM263 383z" />
    <glyph glyph-name="iconfontfuwu" unicode="&#xe602;" 
d="M518 -11l16 15q283 272 346 344q24 28 43 70t28.5 91.5t-5.5 102t-56 90.5q-73 68 -159 64q-30 -1 -60 -10.5t-50.5 -21.5t-40 -26.5t-26.5 -21t-11 -10.5l-226 -228l31 -31l227 228q8 8 19.5 18.5t43.5 29.5t64 26.5t75.5 -3t82.5 -46.5q33 -31 44.5 -74t3.5 -84
t-24.5 -76.5t-37.5 -59.5q-51 -58 -328 -326q-275 273 -329 329q-14 15 -27.5 33t-29 50.5t-20.5 64.5t6.5 73t43.5 78q56 64 136 66q46 0 90 -19t70 -46l32 30q-31 33 -82 56.5t-111 22.5q-99 -3 -168 -81q-39 -46 -53.5 -96.5t-5.5 -97t31 -87.5t56 -77q47 -49 346 -345
l15 -15v0zM518 -11z" />
    <glyph glyph-name="guanyuwomen" unicode="&#xe636;" 
d="M839 -128h-659q-73 0 -125 52t-52 125v659q0 73 52 125t125 52h659q73 0 125 -52t52 -125v-659q0 -73 -52 -125t-125 -52v0v0zM433 601q-36 0 -62 -25t-26 -60t26 -60t62.5 -25t62 25t25.5 60t-25.5 60t-62.5 25v0v0zM432 407q-73 0 -124 -69t-51 -167v-13h349v13
q0 98 -51 167t-123 69v0v0zM648 454q-25 0 -42 -16.5t-17 -40t17 -40.5t41.5 -17t42 17t17.5 40.5t-17.5 40t-41.5 16.5v0v0zM647 324q-13 0 -25 -3q35 -68 35 -150v-13h106v9q0 65 -34 111t-82 46v0v0zM647 324z" />
    <glyph glyph-name="iconfanhui" unicode="&#xe629;" 
d="M831 479q49 -29 97 -98.5t70 -153.5q26 -98 26 -223q-41 65 -57 88q-13 18 -33 40.5t-65 58t-93 57.5t-119 32t-119 10l-47 -1v-205l-491 348l491 347v-206q118 -9 180 -22q46 -9 86 -27.5t57 -31.5l17 -13v0z" />
    <glyph glyph-name="27" unicode="&#xe670;" 
d="M836 -128h-665q-32 0 -54.5 22.5t-22.5 54.5v870q0 32 22.5 54.5t54.5 22.5h665q32 0 54.5 -22.5t22.5 -54.5v-870q0 -32 -22.5 -54.5t-54.5 -22.5v0zM171 845q-11 0 -18.5 -7.5t-7.5 -18.5v-870q0 -11 7.5 -18.5t18.5 -7.5h665q11 0 18.5 7.5t7.5 18.5v870
q0 11 -7.5 18.5t-18.5 7.5h-665v0zM529 -26h-51q-11 0 -18.5 7.5t-7.5 18.5t7.5 18.5t18.5 7.5h51q11 0 18.5 -7.5t7.5 -18.5t-7.5 -18.5t-18.5 -7.5v0zM785 77h-563q-11 0 -18.5 7.5t-7.5 17.5v666q0 11 7.5 18.5t18.5 7.5h563q11 0 18.5 -7.5t7.5 -18.5v-666
q0 -10 -7.5 -17.5t-18.5 -7.5v0zM248 128h512v614h-512v-614v0z" />
    <glyph glyph-name="dingwei2" unicode="&#xe666;" 
d="M796 158q-8 3 -16 -1t-10.5 -12.5t1.5 -16t12 -10.5q52 -17 82.5 -39.5t30.5 -43.5t-29.5 -42.5t-79.5 -38.5t-122.5 -28t-152.5 -11t-152.5 11t-122.5 28t-79.5 38.5t-29.5 42.5q0 22 32.5 45t88.5 40q8 3 12.5 11t1.5 16t-10.5 12.5t-16.5 1.5q-73 -23 -112 -55.5
t-39 -70.5q0 -50 64.5 -88.5t160 -56.5t202.5 -18t202.5 18t160 56.5t64.5 88.5q0 37 -37 69t-106 54zM246 431l247 -426q7 -11 19 -11t19 11l247 426l1 1q42 72 42 155q0 128 -90.5 218.5t-218.5 90.5t-218.5 -90.5t-90.5 -218.5q0 -83 42 -155zM512 729q54 0 92.5 -38.5
t38.5 -92.5t-38.5 -92.5t-92.5 -38.5t-92.5 38.5t-38.5 92.5t38.5 92.5t92.5 38.5z" />
    <glyph glyph-name="imgquanbu" unicode="&#xe763;" 
d="M85 896h854q35 0 60 -25t25 -60v-854q0 -35 -25 -60t-60 -25h-854q-35 0 -60 25t-25 60v854q0 35 25 60t60 25v0zM213 310h150v149h-150v-149v0zM437 310h150v149h-150v-149v0v0zM661 534h150v149h-150v-149v0zM213 534h150v149h-150v-149v0zM437 534h150v149h-150v-149
v0zM661 86h150v149h-150v-149v0zM213 86h150v149h-150v-149v0zM437 86h150v149h-150v-149v0zM661 310h150v149h-150v-149z" />
    <glyph glyph-name="shouye1" unicode="&#xe855;" 
d="M894 326q-35 69 -80 136l-0.5 1t-1.5 2q-122 183 -289 300q-11 7 -22 0q-231 -163 -371 -439q-4 -7 -1.5 -15t9.5 -11q5 -2 9 -2q12 0 17 10q18 35 42 77v-366q0 -8 6 -13.5t13 -5.5h575q8 0 13.5 5.5t5.5 13.5v363q24 -40 41 -74q3 -7 10.5 -9.5t15 1.5t10 11.5
t-1.5 14.5zM589 38h-153v126q0 32 22.5 54.5t54 22.5t54 -22.5t22.5 -54.5v-126zM781 38h-153v126q0 48 -34 82t-81.5 34t-81 -34t-33.5 -82v-126h-153v407q114 170 267 280q154 -111 269 -282v-405z" />
    <glyph glyph-name="dianzan" unicode="&#xe68c;" 
d="M1024 246q0 55 -36 79q12 6 24 32.5t12 51.5q-1 45 -41 74t-104 29h-229q29 80 24 175t-42 153q-36 56 -89 56q-86 0 -86 -107q0 -102 -30 -171q-14 -28 -67 -67t-106 -39h-153q-44 0 -72.5 -33.5t-28.5 -86.5l40 -416q7 -103 99 -103q32 -1 55 -1q17 0 30 1q18 0 50 23
q19 14 25 14q1 0 7 -3t17 -8t20 -9q43 -18 95 -18h318q79 0 118.5 28t39.5 79q0 25 -15 46q35 9 58 30t23 54q0 14 -5.5 30.5t-13.5 21.5q19 5 41 31t22 54v0zM222 -85q-18 -1 -87 0h-1q-18 0 -32.5 15t-18.5 39l-40 433q0 25 18 46.5t43 21.5v0l150 -1q1 0 3.5 0.5t3.5 0.5
v-530q-12 -9 -18 -13q-16 -12 -21 -12v0v0zM921 190h-6v-39q22 -8 22 -40q0 -25 -26.5 -38t-60.5 -13v0v-37q22 -5 22 -40q0 -68 -116 -68h-330q-29 0 -66 18q-10 4 -55 29v515q56 15 104 55.5t64 71.5q15 35 22 76.5t7 113.5q0 33 10 44.5t27 11.5q13 0 30.5 -12t28.5 -28
q32 -51 34 -138t-35 -167l-9 -36h293q40 -2 69.5 -18t29.5 -41v-12q0 -1 -0.5 -8.5t-5 -19t-12.5 -18.5q-6 -5 -12.5 -8t-9.5 -3l-3 -1v-38q17 -2 25 -8q20 -13 19 -45q-1 -18 -22 -38.5t-38 -20.5v0z" />
    <glyph glyph-name="tn-daishouhuo" unicode="&#xe657;" 
d="M810 601h37q7 0 12 -6l161 -203q3 -3 3 -9v-248q0 -19 -13.5 -32.5t-32.5 -13.5h-56q-5 -43 -36.5 -72.5t-74.5 -32.5v30q35 3 59 29t24 61t-24 61t-59 29v30q43 -3 74.5 -33t36.5 -72h56q7 0 12 5t5 11v180h-184v30h184v33l-82 103h-102v30h78l-48 61h-30v29zM333 756
q28 -15 50 -38v0q11 -10 20 -22h164q25 0 42 -18v0q18 -17 18 -42v-35h183v-29h-183v-453h56q6 45 40 75t79 30h8v-30h-8q-37 0 -63.5 -26.5t-26.5 -63.5t26.5 -63.5t63.5 -26.5h8v-30h-8q-45 0 -79 30.5t-40 74.5h-299q-7 -53 -51 -84v40q22 25 22 58.5t-22 59.5v39
q44 -30 51 -83h213v517q0 12 -9 21v0q-8 9 -21 9h-145q27 -50 27 -106q0 -93 -66 -158q-22 -23 -50 -38v35q16 11 29 24q57 57 57 137t-57 138v0q-13 13 -29 24v34zM810 511h-34q-20 0 -34 -14t-14 -34v-101q0 -19 14 -33t33 -14h35v30h-35q-7 0 -12 5t-5 12v101q0 8 5 13
t13 5h34v30zM225 784q58 0 108 -28v-35q-49 34 -108 34q-19 0 -36 -4v30q18 3 36 3v0v0v0zM333 5q-31 -21 -68 -21q-43 0 -76 27v44q27 -42 76 -42q41 0 68 32v-40zM333 399v-35q-50 -28 -108 -28q-18 0 -36 3v30q18 -3 36 -3q59 0 108 33v0v0v0zM333 202v-39q-27 31 -68 31
q-49 0 -76 -41v44q33 27 76 27q37 0 68 -22v0v0v0zM189 511v39l21 17v128q0 10 7.5 14t14.5 0t7 -14v-135q0 -7 -5 -11zM189 11q-37 31 -43 78h-47q-24 0 -41.5 17.5t-17.5 42.5v285q-39 57 -39 126q0 93 65 159q52 51 123 62v-30q-59 -11 -102 -53q-57 -58 -57 -138
t57 -137v0q43 -43 102 -54v-30q-69 11 -120 60v-250q0 -13 9 -21.5t21 -8.5h47q6 47 43 78v-44q-15 -22 -15 -49t15 -49v-44v0zM189 550l-23 -20l-21 -18q-8 -6 -6 -14.5t9.5 -11t15.5 3.5l25 21v39zM189 550z" />
    <glyph glyph-name="rili1" unicode="&#xe655;" 
d="M388 722h249v-26h-249v26v0zM947 696v26h-187v-26h157v-126h-810v126h157v26h-187v-26v0v-669v0v-26h870v26v0v669v0v0zM107 27v517h810v-517h-810v0zM311 767h29v-134h-29v134v0zM685 767h29v-134h-29v134v0zM310 360v-29q36 19 59 39v-212h35v264h-21q-28 -35 -73 -62
v0zM692 272q-4 15 -14 29.5t-31 23t-44 9t-49 -9.5q9 24 17 66h113v27h-139q-30 -123 -34 -132l30 -3q14 17 36.5 21.5t40 0t29 -18.5t12.5 -34t-7 -36t-26.5 -26t-48.5 -5.5t-43 46.5l-31 -8q8 -37 32 -52t50.5 -17t46.5 5t34.5 18.5t21.5 29.5t8 34.5t-4 31.5v0zM692 272z
" />
    <glyph glyph-name="iconfontfanhuieps" unicode="&#xe6bd;" 
d="M895 443l-306 306v-159q-30 -8 -61 -18t-78.5 -32.5t-89 -51t-85.5 -74.5t-75 -100t-51 -131t-20 -165q1 6 4 16.5t17.5 41t34 58.5t56.5 62.5t82 60.5t114.5 46t151.5 23v-190l306 307v0z" />
    <glyph glyph-name="quanbu" unicode="&#xe669;" 
d="M461 410h25v25v218q0 101 -71 172t-172 71t-172 -71t-71 -172t71 -172t172 -71h218zM51 652.5q0 79.5 56.5 136t136 56.5t135.5 -56.5t56 -135.5v-218l26 26h-218q-79 0 -135.5 56t-56.5 135.5zM461 307l-26 26v-218q0 -79 -56 -135.5t-135.5 -56.5t-136 56.5t-56.5 136
t56.5 135.5t135.5 56h218zM0 115q0 -101 71 -172t172 -71t172 71t71 172v218v25h-25h-218q-101 0 -172 -71t-71 -172zM563 461l26 -26v218q0 79 56 135.5t135.5 56.5t136 -56.5t56.5 -136t-56.5 -135.5t-135.5 -56h-218zM1024 653q0 101 -71 172t-172 71t-172 -71t-71 -172
v-218v-25h25h218q101 0 172 71t71 172zM1024 115q0 101 -71 172t-172 71h-218h-25v-25v-218q0 -101 71 -172t172 -71q57 0 107 25q10 5 13.5 15t-1.5 19.5t-15 13t-19 -1.5q-40 -20 -85 -20q-80 0 -136 56.5t-56 135.5v218l-26 -26h218q79 0 135.5 -56t56.5 -136
q0 -28 -8 -54q-3 -10 2 -19.5t15 -12.5t19.5 2t12.5 15q10 34 10 69z" />
    <glyph glyph-name="icon" unicode="&#xe622;" 
d="M874 384v80q0 99 -48.5 182t-132 131.5t-181.5 48.5t-181.5 -48.5t-132 -131.5t-48.5 -182v-80q-33 0 -56.5 -23.5t-23.5 -56.5v-282q0 -33 23.5 -56.5t56.5 -23.5h121q33 0 56.5 23.5t23.5 56.5v282q0 33 -23.5 56.5t-56.5 23.5h-40v80q0 117 82 199.5t199 82.5
t199 -82.5t82 -199.5v-80h-40q-33 0 -56.5 -23.5t-23.5 -56.5v-282q0 -33 23.5 -56.5t56.5 -23.5h121q33 0 56.5 23.5t23.5 56.5v282q0 33 -23.5 56.5t-56.5 23.5zM271 304v-282h-121v282h121zM874 22h-121v282h121v-282z" />
    <glyph glyph-name="dingdan1" unicode="&#xe6f5;" 
d="M792 721h-84v56h-75q-19 25 -51 40.5t-70 15.5t-70 -15.5t-51 -40.5h-75v-56h-84q-46 0 -79 -33t-33 -79v-560q0 -47 33 -79.5t79 -32.5h560q46 0 79 32.5t33 79.5v560q0 46 -33 79t-79 33zM372 721h62q0 23 23 39.5t55 16.5t55 -16.5t23 -39.5h62v-112h-280v112zM848 49
q0 -24 -16.5 -40t-39.5 -16h-560q-23 0 -39.5 16t-16.5 40v560q0 23 16.5 39.5t39.5 16.5h84v-112h392v112h84q23 0 39.5 -16.5t16.5 -39.5v-560zM708 161h-392q-12 0 -20 -8.5t-8 -20t8 -19.5t20 -8h392q12 0 20 8t8 19.5t-8 20t-20 8.5zM708 441h-392q-12 0 -20 -8.5
t-8 -20t8 -19.5t20 -8h392q12 0 20 8t8 19.5t-8 20t-20 8.5zM708 301h-392q-12 0 -20 -8.5t-8 -20t8 -19.5t20 -8h392q12 0 20 8t8 19.5t-8 20t-20 8.5z" />
    <glyph glyph-name="shouye2" unicode="&#xe74a;" horiz-adv-x="1434" 
d="M1262 501l-68 56q-263 216 -388 318q-6 5 -13 8q-5 1 -10 1q-12 0 -25 -11q-113 -92 -327 -268l-78 -64q-7 -5 -14 -11v0l-36 -30q-22 -19 -6 -39q6 -7 15 -7q11 0 27 14q4 3 5.5 4.5l4.5 4.5l24 19v-72v-390v-24q4 -51 44 -83q32 -26 76 -26h74h113h233h160v0
q47 0 80 29q41 35 40 91v343v132q19 -15 29 -24q2 -1 5 -3q17 -15 27 -15t16 8q15 20 -8 39v0zM1149 88v-71q0 -33 -23.5 -53.5t-60.5 -20.5h-114v44v249q0 60 -34 105q-43 55 -111 65q-12 2 -23 2q-60 0 -106 -38.5t-58 -96.5q-3 -17 -3 -37v-229v-12v-52h-120
q-32 0 -55 23t-23 55q0 287 -1 513v1h1q97 80 298 244l67 56q9 -7 60 -50l50 -40q169 -139 254 -209q2 -1 2 -4v-444v0zM663 242q0 39 27 74t71 43q9 1 18 1q43 0 79.5 -30t43.5 -72q1 -9 1 -19v-241v-55h-240v60v13v226v0z" />
    <glyph glyph-name="paihang" unicode="&#xe647;" 
d="M180 896q-21 0 -36 -12.5t-15 -30.5v-936q0 -18 15 -31t36 -13q1 0 4 -0.5t13 1t19.5 5t23.5 13.5t27 25q22 24 68.5 85t82.5 109l36 48q1 2 5.5 7.5t6.5 7.5t6 6.5t6.5 6t7 4.5t8 4.5t8 2.5t9.5 1q19 0 32 -10t27 -30q137 -181 187 -242q20 -26 42 -36.5t34 -8.5l11 1
q21 0 36 13t15 31v936q0 18 -15 30.5t-36 12.5h-370h76h-370z" />
    <glyph glyph-name="gengduo2" unicode="&#xe68e;" 
d="M512 896q-104 0 -199 -40.5t-163.5 -109t-109 -163.5t-40.5 -199t40.5 -199t109 -163.5t163.5 -109t199 -40.5t199 40.5t163.5 109t109 163.5t40.5 199t-40.5 199t-109 163.5t-163.5 109t-199 40.5zM512 -80q-94 0 -180 37t-148 99t-99 148t-37 180t37 180t99 148t148 99
t180 37t180 -37t148 -99t99 -148t37 -180t-37 -180t-99 -148t-148 -99t-180 -37zM296 384zM224 384q0 30 21 51t51 21t51 -21t21 -51t-21 -51t-51 -21t-51 21t-21 51zM512 384zM440 384q0 30 21 51t50.5 21t51 -21t21.5 -51t-21.5 -51t-51 -21t-50.5 21t-21 51zM728 384z
M656 384q0 30 21 51t50.5 21t51 -21t21.5 -51t-21.5 -51t-51 -21t-50.5 21t-21 51z" />
    <glyph glyph-name="jiantou2" unicode="&#xe75f;" 
d="M779 404q-1 1 -1.5 2l-0.5 1v0q-5 9 -7 11q-1 1 -2 1q0 1 -0.5 1.5t-0.5 1.5l-373 358q-14 15 -35 15q-22 0 -37 -16q-14 -15 -14 -36t16 -36l336 -324l-338 -319q-15 -14 -15.5 -35.5t14 -36.5t35.5 -16t36 14l376 355q12 12 15 28.5t-4 30.5z" />
    <glyph glyph-name="saoyisao" unicode="&#xe624;" 
d="M93 564q-13 0 -21.5 9t-8.5 21v145q0 40 28 68.5t68 28.5h143q12 0 21 -9t9 -21.5t-9 -21.5t-21 -9h-143q-15 0 -25.5 -10.5t-10.5 -25.5v-145q0 -12 -9 -21t-21 -9v0zM936 564q-13 0 -21.5 9t-8.5 21v145q0 15 -11 25.5t-26 10.5h-142q-13 0 -21.5 9t-8.5 21.5t8.5 21.5
t21.5 9h142q40 0 68.5 -28.5t28.5 -68.5v-145q0 -12 -9 -21t-21 -9v0zM302 -68h-143q-40 0 -68 28.5t-28 68.5v145q0 12 8.5 21t21 9t21.5 -9t9 -21v-145q0 -15 10.5 -25.5t25.5 -10.5h143q12 0 21 -9t9 -21.5t-9 -21.5t-21 -9v0zM869 -68h-142q-13 0 -21.5 9t-8.5 21.5
t8.5 21.5t21.5 9h142q15 0 26 10.5t11 25.5v145q0 12 8.5 21t21 9t21.5 -9t9 -21v-145q0 -40 -28.5 -68.5t-68.5 -28.5v0zM936 354h-843q-13 0 -21.5 9t-8.5 21t8.5 21t21.5 9h843q12 0 21 -9t9 -21t-9 -21t-21 -9v0z" />
    <glyph glyph-name="liucheng" unicode="&#xe603;" 
d="M960 126q-3 1 -14 9t-19 7q-24 -3 -31 7.5t-6 35.5q1 22 1 94.5v94.5q0 24 -11.5 34.5t-35.5 10.5h-132.5t-132.5 -1q-21 -1 -28 6.5t-3 26.5v1.5v2.5q0 9 -2 31.5t-1 38t8 25.5q7 9 21.5 10.5t36.5 -1.5t31 -3q42 2 43 40v97.5v98.5q0 7 -2.5 13t-8.5 15t-7 11h-308
q-20 -22 -19 -57q1 -31 0.5 -84t-0.5 -83q1 -30 11 -40t39 -10h4t3 -1q9 0 29 2t32.5 1t14.5 -8q3 -11 4.5 -23t2 -26t0 -23.5t-1.5 -27t-1 -24.5t-4 -8.5t-13 -0.5l-9 1h-262q-33 0 -43.5 -10t-10.5 -42v-199q1 -15 -4 -20.5t-18 -4.5q-5 0 -6.5 1t-6 -0.5t-5.5 -1.5t-5 -2
t-5 -2t-5 -2.5t-5 -3t-4.5 -3.5t-4.5 -3v-168q3 -4 10 -11t11 -10h202q19 23 18 54q-1 19 -0.5 52.5t-0.5 52.5q0 28 -9.5 37t-38.5 10q-41 2 -47.5 9t-6.5 47v129q-1 13 4 17.5t17 4.5q113 -1 234 0q11 0 15.5 -4.5t3.5 -15.5q-1 -85 0 -164q1 -13 -3 -17.5t-17 -5.5
q-25 -1 -35.5 -1.5t-22.5 -5t-15 -7.5t-6.5 -16t-3.5 -23.5v-36.5q0 -55 -1 -59q-2 -34 20 -57h238q21 22 19 57v48.5v48.5q0 31 -10.5 41.5t-41.5 10.5q-38 2 -44.5 8.5t-6.5 45.5q0 114 -1 129q0 14 4.5 19t18.5 5q102 -2 230 0q13 0 17.5 -4.5t4.5 -17.5q-1 -86 0 -164
q0 -12 -5 -16t-18 -5q-60 -3 -70 -13.5t-10 -72.5v-63q-2 -34 17 -57h203l21 21v168z" />
    <glyph glyph-name="bianji" unicode="&#xe768;" 
d="M848 615q-3 11 -7 21v1h-1q-10 23 -29 44q-20 21 -39 31q-10 5 -21 8q-14 4 -28 5h-4q-14 0 -29 -5q-17 -5 -32 -17v0l-1 -1q-8 -6 -17 -15q-8 -7 -15 -13l-4 -4v0l-3 -3l-33 -30l2 -1l-3 -3v0l-270 -270l-38 -38l-30 -30l-13 -13l-2 -2q-11 -11 -18 -22q-5 -8 -10 -19
q-4 -8 -9 -23q-5 -13 -10 -30q-4 -15 -8 -29q-5 -18 -7 -29q-5 -35 14 -59q20 -24 54 -24q5 0 11 1h1h1q9 1 27 6q15 4 32 9q16 5 32 11q15 6 25 11q13 6 24 15q9 6 14 11q5 4 17 15q22 23 28 29l37 37h1v1l270 270h-1l37 36v0v1q5 4 11 9q2 3 8 8l12 12l1 1v1q13 13 19 29
t6 33q0 12 -2 24zM450 227l-38 -38q-23 -22 -28 -28q-12 -11 -13 -12q-5 -5 -12 -10q-7 -6 -15 -9q-7 -4 -21 -9t-30 -10q-15 -5 -29.5 -9t-21.5 -5h-5q-10 0 -14 5t-2 19q1 7 5 22q5 16 8 28q5 15 9 28t7 18q3 7 7 13t11 13l6 6t9 10q10 9 29 29l39 38l270 270v0v1v-1
l98 -99h1zM795.5 577q-2.5 -7 -8.5 -13q-2 -3 -6.5 -7l-4.5 -4l-9 -9q-4 -4 -8 -7l-99 99q9 8 15 14q9 7 15 12q7 6 15 9q7 2 14 2h2q8 -1 15 -3t12 -4q11 -6 24.5 -20.5t20.5 -30.5q3 -5 4 -11t1 -13t-2.5 -14z" />
    <glyph glyph-name="zhuanti" unicode="&#xe625;" horiz-adv-x="1025" 
d="M834 756h-540q-117 -1 -204.5 -89.5t-89.5 -209.5v-537q0 -20 14 -34t34 -14h536h1v0q121 2 208 87t89 203v546q0 20 -14 34t-34 14zM786 163q-2 -78 -62 -135.5t-140 -59.5h-488v488q2 82 61 142.5t138 61.5h491v-497zM976 896h-539q-20 0 -34 -14t-14 -34t14 -34
t34 -14h491v-497q0 -20 14 -34t34 -14t34 14t14 34v545q0 20 -14 34t-34 14zM230 486q0 -20 14 -34t34 -14h326q20 0 34 14t14 34t-14 34t-34 14h-326q-20 0 -34 -14t-14 -34zM604 359h-326q-20 0 -34 -14.5t-14 -34t14 -34t34 -14.5h326q20 0 34 14.5t14 34t-14 34
t-34 14.5zM604 183h-326q-20 0 -34 -14.5t-14 -34t14 -33.5t34 -14h326q20 0 34 14t14 33.5t-14 34t-34 14.5z" />
    <glyph glyph-name="jiantou-copy-copy" unicode="&#xe60d;" 
d="M486 558l-288 -297q-11 -10 -11 -25.5t11 -27.5q10 -11 25 -11t26 11l262 271l265 -269q11 -11 26 -11t25.5 10.5t10.5 26t-11 27.5l-288 298q-12 10 -27.5 9.5t-25.5 -12.5z" />
    <glyph glyph-name="jiantou-copy-copy-copy" unicode="&#xe60e;" 
d="M538 210l288 297q11 10 11 25.5t-11 27.5q-10 11 -25 11t-26 -11l-262 -271l-265 269q-11 11 -26 11t-25.5 -10.5t-10.5 -26t11 -27.5l288 -298q12 -10 27.5 -9.5t25.5 12.5z" />
    <glyph glyph-name="suo1" unicode="&#xe6b2;" 
d="M563 167q24 14 37.5 37.5t13.5 51.5q0 42 -30 72t-72 30t-72 -30t-30 -72q0 -28 13.5 -51.5t37.5 -37.5v-90q0 -22 15 -36.5t36 -14.5t36 15t15 36v90v0zM819 589q0 127 -90 217t-217 90t-217 -90t-90 -217h102q0 85 60 145t145 60t145 -60t60 -145h102v0zM205 589h102
v-103h-102v103v0zM717 589h102v-103h-102v103v0zM77 384q0 43 30 72.5t72 29.5h666q42 0 72 -29.5t30 -72.5v-410q0 -42 -30 -72t-72 -30h-666q-42 0 -72 30t-30 72v410v0z" />
    <glyph glyph-name="fanhui1" unicode="&#xe6a5;" 
d="M942 157q-16 0 -20 16q-1 7 -5 19.5t-22 44.5t-44 59q-111 117 -326 122v-166q0 -13 -11.5 -18.5t-21.5 1.5l-392 285q-8 6 -8 16.5t8 16.5l392 286q10 7 21.5 1.5t11.5 -18.5v-177q60 -2 120 -18q123 -32 201 -112q120 -122 117 -338q0 -8 -5.5 -13.5t-13.5 -6.5h-2z
M504 459q137 0 239 -42q83 -35 140 -95q17 -18 32 -39q-21 125 -98 203q-38 39 -88 65.5t-97 36.5t-74 13.5t-48 3.5h-5v0q-9 -1 -15 5t-6 15v157l-337 -246l337 -244v147q0 8 6 14t14 6z" />
    <glyph glyph-name="fenlei3" unicode="&#xe62e;" 
d="M349 819h-243q-42 0 -70 -36.5t-28 -82.5v-217q0 -44 27.5 -71.5t70.5 -27.5h243q46 0 83 28.5t37 70.5v217q0 44 -38 81.5t-82 37.5zM418 483q0 -21 -22 -34.5t-47 -13.5h-243q-22 0 -34.5 13t-12.5 35v217q0 25 13 46.5t34 21.5h243q23 0 45.5 -23t22.5 -45v-217h1z
M349 333h-243q-41 0 -69.5 -41t-28.5 -87v-218q0 -42 27 -65.5t71 -23.5h243q48 0 84 24t36 65v218q0 44 -38 86t-82 42zM418 -13q0 -20 -20.5 -29t-48.5 -9h-243q-23 0 -35 8.5t-12 29.5v218q0 25 13.5 51t33.5 26h243q22 0 45 -27.5t23 -49.5v-218h1zM891 333h-243
q-42 0 -72 -41t-30 -87v-218q0 -42 28 -65.5t74 -23.5h243q46 0 80.5 24t34.5 65v218q0 44 -36 86t-79 42zM955 -13q0 -20 -19 -29t-45 -9h-243q-51 0 -51 38v218q0 25 15 51t36 26h243q22 0 43 -27t21 -50v-218zM746 327q44 0 75 30l172 167q31 31 31 74t-31 74l-159 154
q-31 30 -75 30t-75 -30l-172 -167q-31 -30 -31 -73.5t31 -74.5l159 -154q31 -30 75 -30zM532 585q0 22 16 37l171 167q17 16 40 16t39 -16l159 -154q16 -15 16 -37t-16 -37l-172 -167q-16 -15 -39.5 -15t-39.5 15l-158 154q-16 15 -16 37z" />
    <glyph glyph-name="mo" unicode="&#xe61a;" 
d="M509 271q-25 0 -42.5 17.5t-17.5 41.5v447q0 24 17.5 42t42 18t42 -18t17.5 -42v-387h132q25 0 42.5 -17.5t17.5 -42t-17.5 -42t-42.5 -17.5h-191zM512.5 51q123.5 0 210.5 87t87 211q0 71 -32 133.5t-87 104.5v139q107 -51 172.5 -152.5t65.5 -224.5q0 -114 -55.5 -210
t-151.5 -152t-209.5 -56t-209.5 56t-152 152t-56 210q0 123 65.5 224.5t172.5 152.5v-139q-55 -42 -87 -104.5t-32 -133.5q0 -124 87.5 -211t211 -87z" />
    <glyph glyph-name="gouwuche" unicode="&#xe63d;" 
d="M410 563v35l436 -5v-35zM731 212l98 373l34 -9l-98 -373zM337 210v35l427 -5l-1 -35zM133 725l32 12l189 -516l-33 -12zM342 171q-29 0 -49.5 -20.5t-20.5 -49.5t20.5 -49.5t49.5 -20.5t49.5 20.5t20.5 49.5t-20.5 49.5t-49.5 20.5zM342 60q-17 0 -28.5 12t-11.5 29
t11.5 29t28.5 12t29 -12t12 -29t-12 -29t-29 -12zM727.5 171q-29.5 0 -50 -20.5t-20.5 -49.5t20.5 -49.5t50 -20.5t50 20.5t20.5 49.5t-20.5 49.5t-50 20.5zM727.5 60q-16.5 0 -28.5 12t-12 29t12 29t28.5 12t28.5 -12t12 -29t-12 -29t-28.5 -12z" />
    <glyph glyph-name="jiantou3" unicode="&#xe610;" 
d="M282 839l452 -452l-452 -453v905z" />
    <glyph glyph-name="luyin" unicode="&#xe660;" 
d="M511 204q103 0 175 71t72 173v204q0 102 -72 173t-175 71t-174.5 -71t-71.5 -173v-204q0 -102 71.5 -173t174.5 -71zM897 498v2q0 17 -14.5 30.5t-33.5 13.5t-33 -13t-14 -31q0 -10 3 -14v-35q0 -119 -86.5 -204.5t-207.5 -85.5t-208 85.5t-87 204.5v39l1.5 3.5t1.5 6.5
q0 18 -13.5 31t-32.5 13t-32.5 -13t-13.5 -31v-66q0 -145 96 -251.5t239 -126.5v-90h-128q-19 0 -33.5 -14.5t-14.5 -33.5t14.5 -32.5t33.5 -13.5h349q21 0 34 13t13 33t-13.5 34t-33.5 14h-129v90q145 16 244 124t99 254v64v0z" />
    <glyph glyph-name="jiantou4" unicode="&#xe709;" 
d="M32 649l484 -527l476 529z" />
    <glyph glyph-name="gengduo3" unicode="&#xe605;" 
d="M224 288q-40 0 -68 28t-28 68t28 68t68 28t68 -28t28 -68t-28 -68t-68 -28zM512 288q-40 0 -68 28t-28 68t28 68t68 28t68 -28t28 -68t-28 -68t-68 -28zM800 288q-40 0 -68 28t-28 68t28 68t68 28t68 -28t28 -68t-28 -68t-68 -28z" />
    <glyph glyph-name="gengduo4" unicode="&#xe618;" 
d="M512 2q-16 0 -38 2l-12 2q-11 1 -16 2l-6 2q-4 0 -12 2l-3 1q-15 4 -22 6l-12 4q-15 5 -24 9l-7 3q-16 7 -27 13l-3 2q-47 26 -85 64l-2 2q-13 14 -21 24l-9 12q-7 8 -10 13l-2 3q-67 98 -67 216v20h-62l90 137l90 -137h-63v-20q0 -113 71 -202l4 -5q9 -12 19 -22
q34 -34 74 -56q10 -6 26 -13l5 -2q7 -4 21 -8l9 -3q8 -3 20 -5l3 -1q1 0 3 -0.5t3.5 -1t2.5 -0.5q7 -2 20 -3q9 -2 11 -2q12 -1 27 -1h4q101 0 184 59q7 5 16 5q14 0 22 -12q7 -10 5 -21.5t-11 -18.5q-98 -69 -216 -69zM771 364h62v20q0 117 -73 207q-50 61 -122 93h-2
q-11 5 -24 10l-7 2q-9 2 -22 6q-7 1 -10 2q-10 2 -22 3l-9 1q-14 2 -28 2h-3q-101 0 -184 -59q-8 -5 -16 -5q-15 0 -23 12q-6 9 -4 21t11 18q97 69 215 69h2h2h3q17 0 30 -2l19 -2q7 -1 11 -1q5 -2 6.5 -2t8.5 -2l4 -1l24 -6l10 -3q16 -6 26 -10l5 -2q83 -37 141 -107l2 -3
q11 -15 16 -22l2 -2q66 -99 66 -217v-20h63l-90 -136z" />
    <glyph glyph-name="fonts-shangcheng" unicode="&#xe626;" 
d="M917 692h-811l-74 -216q0 -50 35 -85.5t84.5 -35.5t85 35.5t35.5 85.5q0 -50 35 -85.5t84.5 -35.5t84.5 35.5t35 85.5q0 -50 35 -85.5t85 -35.5t85 35.5t35 85.5q0 -50 35 -85.5t84.5 -35.5t84.5 35.5t35 85.5zM187 730h649q18 0 31 11t13 26t-13 25.5t-31 10.5h-649
q-18 0 -31 -10.5t-13 -25.5t13 -26t31 -11zM751 349q-51 -47 -120.5 -47t-119.5 47q-50 -47 -119.5 -47t-119.5 47q-51 -47 -120 -47h-9v-266q0 -32 23 -52.5t50 -20.5h590q33 0 53.5 21t20.5 52v266h-9q-70 0 -120 47zM751 349z" />
    <glyph glyph-name="wujiaoxing1" unicode="&#xe659;" 
d="M823 -86l-314 166l-313 -166l60 351l-259 250l350 50l159 321l158 -321l351 -50l-256 -250zM61 491l222 -216l-50 -307l276 145l277 -145l-54 307l222 216l-306 44l-139 280l-138 -280l-310 -44v0z" />
    <glyph glyph-name="huoche" unicode="&#xe61c;" 
d="M969 408l-237 252v0l-0.5 0.5t-1.5 0.5q0 1 -0.5 1t-0.5 0.5t-1 0.5t-1 0.5t-1 0.5h-1l-1 1h-0.5h-0.5l-1 0.5l-1 0.5h-1h-1h-1h-1v0h-689q-9 0 -15 -6t-6 -15v-444q0 -7 5 -13.5t12 -7.5q5 -4 12 -4v0h858q53 0 90.5 37.5t37.5 91.5q0 65 -53 103zM768 433h-141v119h144
h3l113 -119h-119zM894 219h-844v404h657l27 -28h-128v0q-9 0 -15.5 -6.5t-6.5 -15.5v-162v0q0 -8 6.5 -14.5t15.5 -6.5v0h288v0q26 0 47 -14v-1q3 -3 7 -4q31 -26 31 -67q0 -35 -25 -60t-60 -25zM279 595h-162q-9 0 -15 -6.5t-6 -15.5v-162q0 -8 6 -14.5t15 -6.5h162v0
q9 0 15 6.5t6 14.5v162v0q0 9 -6 15.5t-15 6.5v0zM257 433h-119v119h119v-119zM523 595h-162v0q-9 0 -15 -6.5t-6 -15.5v-162q0 -8 6 -14.5t15 -6.5h162v0q9 0 15.5 6.5t6.5 14.5v162v0q0 9 -6.5 15.5t-15.5 6.5v0zM502 433h-119v119h119v-119zM878 140h-857
q-8 0 -14.5 -6.5t-6.5 -15.5t6.5 -15t14.5 -6h857q9 0 15.5 6t6.5 15t-6.5 15.5t-15.5 6.5z" />
    <glyph glyph-name="zhifubao" unicode="&#xe63a;" 
d="M186 247q-1 -24 9.5 -43t24.5 -28t32 -15t28 -7t18 -1q59 -2 124 36q6 4 14.5 10t16.5 12t15.5 12.5t14.5 13t12 11t9 8l4 3.5l5 5q-20 11 -41 21q-91 44 -142 49q-40 5 -70 -4t-45 -25t-22 -30.5t-7 -27.5zM588 224q-76 -61 -104 -76q-32 -19 -67 -30q-31 -10 -54 -13
q-22 -2 -38 -3q-2 -1 -3 -1v0h-12h-2q-37 0 -72 10q-35 9 -61 28q-26 18 -41 45.5t-15 64.5q0 31 17 57.5t43 43.5q27 19 58 28q27 8 56 8q4 0 8 -1q32 -1 61.5 -7t56.5 -15q26 -8 51 -19q23 -9 46 -19q18 -8 37 -14q20 24 35 52q13 23 24 46q8 18 14 36q5 14 7 20h-312v35
h147v79h-205v35h205v65q0 6 7 10t17 5q11 3 23 3h1h56v-83h210v-35h-210v-79h167v0v0v0q-6 -35 -17 -68q-10 -31 -30 -70.5t-52 -81.5q18 -8 50.5 -22t122 -43t166.5 -41q19 41 32 102.5t13 106.5v1q0 139 -68.5 257t-186.5 186.5t-257 68.5t-257 -68.5t-186.5 -186.5
t-68.5 -257t68.5 -257t186.5 -186.5t257 -68.5q129 0 240.5 60t181.5 163q-65 14 -141.5 43.5t-204.5 85.5z" />
    <glyph glyph-name="PK" unicode="&#xe6a2;" 
d="M212 736h-138q-29 0 -49 -20.5t-20 -49.5v-559q0 -29 20 -49.5t49 -20.5t49 20.5t20 49.5v489h69q48 0 82 -34t34 -82.5t-34 -82.5t-82 -34v-139q105 0 179.5 75t74.5 181t-74.5 181t-179.5 75zM999 160l-234 197l229 231q20 21 20 49.5t-20 49t-49 20.5t-49 -20
l-200 -202v181q0 29 -20 49.5t-48.5 20.5t-49 -20.5t-20.5 -49.5v-559q0 -29 20.5 -49.5t49 -20.5t48.5 20.5t20 49.5v122l203 -170q21 -21 50 -21t50 21t21 50.5t-21 50.5z" />
    <glyph glyph-name="liubianxing" unicode="&#xe654;" 
d="M955.5 640q-16.5 29 -45.5 45l-2 1l-332 192v0q-29 18 -64 18t-64 -18v0l-332 -192l-2 -1q-29 -16 -45 -45q-16 -28 -17 -59v-3v-3v-382v-3v-3q1 -31 17 -59q6 -12 19.5 -25.5t25.5 -20.5h2l332 -192v0q29 -18 64 -18t64 18v0l332 192h2q29 17 45.5 46t16.5 62v388
q0 33 -16.5 62z" />
    <glyph glyph-name="bianji1" unicode="&#xe64e;" 
d="M997 869q-9 9 -22 9t-22 -9l-681 -682q-9 -9 -9 -21.5t9 -22t22 -9.5t22 10l681 681q9 9 9 22t-9 22zM997 869zM913 570q-13 0 -22 -9t-9 -22v-0.5v-0.5v-573q0 -6 -4 -9.5t-9 -3.5h-776q-5 0 -9 3.5t-4 9.5v777q0 5 4 9t9 4h573q12 0 21 9t9 21.5t-9 22t-21 9.5h-573
q-31 0 -53 -22t-22 -53v-777q0 -31 22 -53t53 -22h776q31 0 53 22t22 53v575v0q-1 13 -10 21.5t-21 8.5zM913 570z" />
    <glyph glyph-name="wode1" unicode="&#xe606;" 
d="M515 830q-102 0 -175 -74t-73 -177q0 -75 39.5 -136t103.5 -92q-118 -35 -193.5 -135.5t-75.5 -228.5q0 -8 5.5 -14t13.5 -6t14 6t6 14q0 92 45 170.5t122 124t168 45.5q102 0 175 74t73 177.5t-73 177.5t-175 74zM515 367q-86 0 -147.5 62t-61.5 149.5t61.5 149.5
t147.5 62t147.5 -62t61.5 -149.5t-61.5 -149.5t-147.5 -62zM742 289q-5 4 -12 4q-9 0 -15 -8q-5 -6 -4 -14.5t7 -13.5q63 -48 97.5 -119t34.5 -151q0 -8 6 -14t14 -6t13.5 6t5.5 14q0 89 -38.5 168.5t-108.5 133.5z" />
    <glyph glyph-name="wujiaoxing" unicode="&#xe63f;" 
d="M544 854l130 -265q8 -16 26 -19l294 -43q21 -3 28 -24.5t-9 -35.5l-211 -207q-14 -13 -11 -32l50 -291q4 -22 -14 -35t-38 -2l-261 136q-17 9 -34 0l-261 -136q-20 -11 -38 2t-14 35l50 291q3 19 -10 32l-210 207q-16 16 -9 36.5t28 23.5l292 43q18 2 26 19l130 265
q11 19 34 19t32 -19z" />
    <glyph glyph-name="liuchengduihao" unicode="&#xe60b;" 
d="M512 371zM17 371.5q0 -100.5 39 -192.5t105.5 -158.5t158 -105.5t192.5 -39t192.5 39t158 105.5t105.5 158.5t39 192.5t-39 192.5t-105.5 158t-158 105.5t-192.5 39.5t-192.5 -39.5t-158 -105.5t-105.5 -158t-39 -192.5zM225 408q-10 10 -23.5 10t-23.5 -10t-10 -23.5
t10 -22.5l212 -212q10 -10 23 -10t23 10l396 397q10 9 10 22.5t-9.5 23.5t-23 10t-23.5 -10l-373 -374z" />
    <glyph glyph-name="dingdan2" unicode="&#xe637;" 
d="M819 802h-56q-13 0 -23 -7t-10 -18t10.5 -21t22.5 -10h56q24 0 39.5 -15t15.5 -40v-642q0 -25 -15.5 -40t-39.5 -15h-600q-27 0 -48.5 16t-21.5 39v642q0 25 15.5 40t39.5 15h70q22 0 22 31q0 25 -22 25h-70q-56 0 -83.5 -31t-27.5 -81v-635q0 -53 31 -85t86 -32h603
q57 0 87 30t30 87v635q0 49 -29.5 80.5t-81.5 31.5zM274 550.5q0 -11.5 8.5 -20t20.5 -8.5h418q12 0 20.5 8.5t8.5 20t-8.5 20t-20.5 8.5h-418q-12 0 -20.5 -8.5t-8.5 -20zM720 425h-417q-12 0 -20.5 -8.5t-8.5 -20t8.5 -20t20.5 -8.5h418q12 0 20.5 8.5t8.5 20.5
q-1 12 -9.5 20t-20.5 8zM720 258h-417q-12 0 -20.5 -8.5t-8.5 -20t8.5 -20t20.5 -8.5h418q12 0 20.5 8.5t8.5 20.5q-1 12 -9.5 20t-20.5 8zM416 732h194q17 0 29 14.5t12 34.5t-12.5 34t-29.5 14h-193q-18 0 -30.5 -14t-12.5 -34t12.5 -34.5t30.5 -14.5z" />
    <glyph glyph-name="jiantou1" unicode="&#xe62d;" 
d="M512 -127q-104 0 -198.5 40.5t-163 109t-109 163t-40.5 198.5t40.5 198.5t109 163t163 109t198.5 40.5t198.5 -40.5t163 -109t109 -163t40.5 -198.5t-40.5 -198.5t-109 -163t-163 -109t-198.5 -40.5zM512 839q-92 0 -176.5 -36t-145.5 -97t-97 -145.5t-36 -176.5
t36 -176.5t97 -145.5t145.5 -97t176.5 -36t176.5 36t145.5 97t97 145.5t36 176.5t-36 176.5t-97 145.5t-145.5 97t-176.5 36zM399 104q-11 1 -19.5 9t-8.5 19.5t8 19.5l233 232l-233 232q-8 8 -8 20t8 20t20 8t20 -9l252 -251q8 -9 8 -20t-8 -20l-252 -251q-8 -9 -20 -9v0v0
z" />
    <glyph glyph-name="xiazai" unicode="&#xe68a;" 
d="M768 486l-83 90l-115 -115v217q0 24 -17 41t-41 17t-41 -17t-17 -41v-211l-115 109l-83 -102l256 -250zM704 160h-384q-29 0 -46.5 -17.5t-17.5 -46.5t17.5 -46.5t46.5 -17.5h384q29 0 46.5 17.5t17.5 46.5t-17.5 46.5t-46.5 17.5z" />
    <glyph glyph-name="jiantou31" unicode="&#xe612;" 
d="M77 387l867 509l-250 -515l253 -509z" />
    <glyph glyph-name="zuji" unicode="&#xe728;" 
d="M617 -110q-62 0 -106 25t-65 71q-19 43 -15 107q2 38 -3 59q-3 16 -12 31.5t-16.5 24.5t-22.5 26l-18 21t-17 21.5t-16 26t-12 29t-9 35t-2.5 40.5t3.5 49q4 24 13 51t27 57t42.5 53t62.5 38.5t82 15.5q170 0 266 -129q82 -112 82 -276q0 -70 -17.5 -136t-50 -120
t-83.5 -87t-113 -33zM533 633q-45 0 -82 -18.5t-58 -48t-33 -58.5t-16 -57q-4 -22 -4 -42t2 -34.5t7.5 -29.5t10 -24.5t14 -22.5t15 -19.5t16.5 -18.5q17 -19 25.5 -30t19.5 -30.5t15 -39.5q6 -26 3 -70q-3 -54 12 -88q34 -74 137 -74q70 0 123 51t78 126.5t25 160.5
q0 151 -75 253q-84 114 -235 114zM228.5 565q-55.5 0 -94.5 39t-39 94t39 94t94.5 39t94.5 -39t39 -94t-39 -94t-94.5 -39zM228.5 793q-39.5 0 -67.5 -28t-28 -67t28 -67t67.5 -28t67.5 28t28 67t-28 67t-67.5 28zM467.5 696q-36.5 0 -62.5 26t-26 63t26 63t62.5 26t63 -26
t26.5 -63t-26.5 -63t-63 -26zM467.5 836q-21.5 0 -36.5 -15t-15 -36t15 -36t36.5 -15t36.5 15t15 36t-15 36t-36.5 15zM680 679q-37 0 -63 26t-26 63t26 63t63 26t63 -26t26 -63t-26 -63t-63 -26zM680 819q-21 0 -36 -15t-15 -36t15 -36t36 -15t36 15t15 36t-15 36t-36 15z
M857.5 608q-29.5 0 -50.5 21t-21 50.5t21 50.5t50.5 21t50.5 -21t21 -50.5t-21 -50.5t-50.5 -21zM857 713q-14 0 -24 -10t-10 -24t10 -23.5t24 -9.5t24 9.5t10 23.5t-10 24t-24 10z" />
    <glyph glyph-name="xiaoguo" unicode="&#xe611;" 
d="M267 896l57 -224l185 -68l-184 -70l-55 -224l-58 224l-184 67l184 70zM651 831l72 -148l138 -21l-118 -76l-7 -165l-72 148l-139 21l119 76zM288 298l32 -94l82 -23l-77 -36l-16 -99l-32 94l-81 23l76 37zM416 353l109 111q17 17 42 17t43 -17l164 -168l-194 -197
l-164 167q-17 18 -17 43.5t17 43.5zM811 258l-193 -198l166 -170q18 -18 43 -18t42 18l109 111q17 18 17 43t-17 44zM439 301l136 -140l137 140l-137 140z" />
    <glyph glyph-name="sousuo3" unicode="&#xe604;" 
d="M819 148l-109 110q55 76 55 170q0 123 -87 210t-210 87t-210 -87t-87 -210t87 -210t210 -87q94 0 170 55l110 -109q15 -16 35 -16t33 16q15 15 15.5 37t-12.5 34zM468 207q-93 0 -157.5 64.5t-64.5 157t64.5 157t157 64.5t157 -64.5t64.5 -157.5q0 -90 -65 -155.5
t-156 -65.5z" />
    <glyph glyph-name="btn_kaquan" unicode="&#xe679;" horiz-adv-x="1670" 
d="M1562 540v0q1 0 1 18v44v193q0 25 -18 43t-44 19h-1319q-26 -1 -44 -19t-18 -43v-193v-31t0.5 -22.5l0.5 -8.5v0q68 0 116.5 -48t48.5 -116t-48.5 -116.5t-116.5 -48.5v0l-0.5 -8t-0.5 -22.5v-30.5v-194q0 -25 18 -43t44 -18h1319q26 0 44 18t18 43v194v43t-1 18v0
q-68 0 -116.5 48.5t-48.5 116.5t48.5 116t116.5 48zM1203 198h-722q-12 0 -21 12t-9 29t9 29t21 12h722q13 0 22 -12t9 -29t-9 -29t-22 -12zM1203 520h-722q-12 0 -21 12t-9 29t9 29t21 12h722q13 0 22 -12t9 -29t-9 -29t-22 -12z" />
    <glyph glyph-name="shoucang1" unicode="&#xe64f;" 
d="M750 752h-472q-30 0 -51 -21t-21 -51v-599q15 -37 31.5 -50t33.5 -5t35 27t42 44.5t49.5 49t61 39.5t73.5 16q26 0 50.5 -10t48 -31t37 -36t35.5 -42q11 -14 16.5 -20.5t15 -17t15 -14t13.5 -8t13 -3t12 5t12 12.5t11 22.5t11 32.5v587q0 30 -21 51t-51 21zM786 144
q-4 -16 -9 -25.5t-9 -15t-10.5 -5t-11 2.5t-13 10t-14 14t-16.5 19q-20 24 -33 37t-37 33t-50 29.5t-55 9.5q-38 0 -72.5 -14t-58.5 -33.5t-46 -42t-37 -39.5t-28 -26t-23.5 -1.5t-20.5 34.5v512q0 30 21 51.5t51 21.5h400q30 0 51 -21.5t21 -51.5v-499zM645 536l-78 2
q-15 41 -28 78q-21 42 -43 0l-28 -78l-86 -2q-24 0 -26 -16.5t20 -27.5l62 -48q-12 -41 -24 -79q-1 -4 -1.5 -8t0 -10.5t3.5 -10t12 -3t23 7.5l67 46q35 -24 68 -47q24 -12 31 1.5t2 29.5l-22 74q33 25 63 48q17 16 12.5 25.5t-12.5 13.5t-15 4z" />
  </font>
</defs>
</svg>
